<svg xmlns="http://www.w3.org/2000/svg" xmlns:xlink="http://www.w3.org/1999/xlink" width="450" zoomAndPan="magnify" viewBox="0 0 337.5 337.500003" height="450" preserveAspectRatio="xMidYMid meet" version="1.0"><defs><clipPath id="2b9421769e"><path d="M 10.960938 13 L 142 13 L 142 303 L 10.960938 303 Z M 10.960938 13 " clip-rule="nonzero"/></clipPath><clipPath id="fd9c93afcf"><path d="M 198 53 L 328.960938 53 L 328.960938 325 L 198 325 Z M 198 53 " clip-rule="nonzero"/></clipPath></defs><path fill="#4dac4d" d="M 172.519531 173.46875 L 172.519531 159.691406 L 54.328125 159.691406 L 54.328125 253.125 L 151.417969 253.125 C 150.941406 250.9375 150.6875 248.667969 150.6875 246.339844 C 150.6875 243.9375 150.957031 241.597656 151.46875 239.347656 L 172.519531 216.320312 Z M 172.519531 173.46875 " fill-opacity="1" fill-rule="evenodd"/><path fill="#a0e557" d="M 172.519531 216.320312 L 172.519531 173.46875 L 84.570312 173.46875 C 84.570312 182.5625 77.195312 189.9375 68.101562 189.9375 L 68.101562 222.878906 C 77.195312 222.878906 84.570312 230.253906 84.570312 239.347656 L 151.464844 239.347656 C 153.929688 228.464844 162.019531 219.714844 172.519531 216.320312 Z M 172.519531 216.320312 " fill-opacity="1" fill-rule="evenodd"/><path fill="#ffe600" d="M 213.125 169.519531 C 235.550781 169.519531 253.730469 162.03125 253.730469 152.796875 C 253.730469 143.5625 235.550781 136.078125 213.125 136.078125 C 190.699219 136.078125 172.519531 143.5625 172.519531 152.796875 C 172.519531 162.03125 190.699219 169.519531 213.125 169.519531 Z M 213.125 169.519531 " fill-opacity="1" fill-rule="evenodd"/><path fill="#e6cf00" d="M 253.730469 186.238281 L 253.730469 152.796875 C 253.730469 162.03125 235.550781 169.519531 213.125 169.519531 C 190.699219 169.519531 172.519531 162.03125 172.519531 152.796875 L 172.519531 186.238281 C 172.519531 195.472656 190.699219 202.960938 213.125 202.960938 C 235.550781 202.960938 253.730469 195.472656 253.730469 186.238281 Z M 253.730469 186.238281 " fill-opacity="1" fill-rule="evenodd"/><path fill="#ffe600" d="M 253.730469 219.679688 L 253.730469 186.238281 C 253.730469 195.472656 235.550781 202.960938 213.125 202.960938 C 190.699219 202.960938 172.519531 195.472656 172.519531 186.238281 L 172.519531 216.320312 C 175.578125 215.332031 178.84375 214.796875 182.230469 214.796875 C 196.179688 214.796875 208.011719 223.847656 212.175781 236.398438 L 213.125 236.402344 C 235.550781 236.402344 253.730469 228.917969 253.730469 219.679688 Z M 253.730469 219.679688 " fill-opacity="1" fill-rule="evenodd"/><path fill="#e6cf00" d="M 213.125 269.84375 C 235.550781 269.84375 253.730469 262.359375 253.730469 253.125 L 253.730469 219.683594 C 253.730469 228.917969 235.550781 236.402344 213.125 236.402344 L 212.175781 236.398438 C 213.214844 239.523438 213.777344 242.867188 213.777344 246.339844 C 213.777344 255.441406 209.921875 263.640625 203.761719 269.398438 C 206.765625 269.691406 209.902344 269.84375 213.125 269.84375 Z M 213.125 269.84375 " fill-opacity="1" fill-rule="evenodd"/><path fill="#baa700" d="M 203.761719 269.398438 C 209.921875 263.640625 213.777344 255.441406 213.777344 246.339844 C 213.777344 242.867188 213.214844 239.523438 212.175781 236.398438 C 208.011719 223.847656 196.179688 214.796875 182.230469 214.796875 C 178.84375 214.796875 175.578125 215.332031 172.519531 216.320312 C 162.019531 219.714844 153.929688 228.464844 151.46875 239.347656 C 150.957031 241.597656 150.6875 243.9375 150.6875 246.339844 C 150.6875 248.667969 150.941406 250.9375 151.421875 253.125 C 154.523438 267.285156 167.140625 277.886719 182.230469 277.886719 C 190.554688 277.886719 198.125 274.664062 203.761719 269.398438 Z M 203.761719 269.398438 " fill-opacity="1" fill-rule="evenodd"/><path fill="#e6d750" d="M 285.417969 247.210938 C 289.71875 247.210938 293.238281 243.691406 293.238281 239.390625 L 293.238281 232.902344 C 293.238281 228.621094 289.75 225.113281 285.476562 225.082031 L 253.730469 225.082031 L 253.730469 247.210938 Z M 285.417969 247.210938 " fill-opacity="1" fill-rule="evenodd"/><path fill="#ffef59" d="M 285.417969 225.082031 L 285.476562 225.082031 C 285.457031 225.082031 285.4375 225.082031 285.417969 225.082031 Z M 299.441406 210.773438 C 299.441406 206.472656 295.921875 202.953125 291.621094 202.953125 L 253.730469 202.953125 L 253.730469 225.082031 L 291.621094 225.082031 C 295.921875 225.082031 299.441406 221.5625 299.441406 217.261719 Z M 299.441406 210.773438 " fill-opacity="1" fill-rule="evenodd"/><path fill="#e6d750" d="M 287.035156 195.132812 L 287.035156 188.644531 C 287.035156 184.363281 283.550781 180.855469 279.273438 180.824219 L 253.730469 180.824219 L 253.730469 202.953125 L 279.21875 202.953125 C 283.519531 202.953125 287.035156 199.433594 287.035156 195.132812 Z M 287.035156 195.132812 " fill-opacity="1" fill-rule="evenodd"/><path fill="#ffef59" d="M 279.21875 180.824219 L 279.277344 180.824219 C 279.257812 180.824219 279.238281 180.824219 279.21875 180.824219 Z M 293.238281 173.003906 L 293.238281 166.515625 C 293.238281 162.214844 289.722656 158.695312 285.421875 158.695312 L 253.734375 158.695312 L 253.734375 180.824219 L 285.421875 180.824219 C 289.722656 180.824219 293.238281 177.304688 293.238281 173.003906 Z M 293.238281 173.003906 " fill-opacity="1" fill-rule="evenodd"/><path fill="#bacad3" d="M 212.503906 57.066406 L 226.988281 57.066406 L 226.988281 120.597656 L 212.503906 120.597656 Z M 212.503906 57.066406 " fill-opacity="1" fill-rule="evenodd"/><path fill="#32d736" d="M 179.308594 73.421875 L 193.796875 73.421875 L 193.796875 120.597656 L 179.308594 120.597656 Z M 179.308594 73.421875 " fill-opacity="1" fill-rule="evenodd"/><path fill="#fd481e" d="M 146.117188 83.441406 L 160.605469 83.441406 L 160.605469 120.597656 L 146.117188 120.597656 Z M 146.117188 83.441406 " fill-opacity="1" fill-rule="evenodd"/><path fill="#17ace8" d="M 112.925781 93.464844 L 127.410156 93.464844 L 127.410156 120.597656 L 112.925781 120.597656 Z M 112.925781 93.464844 " fill-opacity="1" fill-rule="evenodd"/><g clip-path="url(#2b9421769e)"><path fill="#117ea9" d="M 82.898438 301.921875 C 84.5625 303.011719 86.796875 302.546875 87.882812 300.882812 C 88.972656 299.21875 88.507812 296.984375 86.84375 295.898438 C 65.761719 282.082031 48.332031 263.175781 36.300781 240.925781 C 24.703125 219.476562 18.117188 194.90625 18.117188 168.792969 C 18.117188 132.632812 30.753906 99.425781 51.851562 73.347656 C 73.359375 46.765625 103.648438 27.589844 138.296875 20.242188 C 140.238281 19.828125 141.480469 17.917969 141.070312 15.976562 C 140.65625 14.03125 138.746094 12.789062 136.804688 13.203125 C 100.496094 20.902344 68.765625 40.984375 46.25 68.8125 C 24.148438 96.132812 10.90625 130.917969 10.90625 168.792969 C 10.90625 196.125 17.808594 221.851562 29.964844 244.332031 C 42.574219 267.652344 60.832031 287.460938 82.898438 301.921875 Z M 82.898438 301.921875 " fill-opacity="1" fill-rule="nonzero"/></g><path fill="#117ea9" d="M 232.492188 333.71875 C 234.398438 334.292969 236.410156 333.214844 236.984375 331.3125 C 237.558594 329.40625 236.480469 327.394531 234.578125 326.820312 L 208.996094 319.082031 L 227.277344 299.597656 C 228.636719 298.152344 228.566406 295.875 227.121094 294.515625 C 225.675781 293.152344 223.398438 293.222656 222.039062 294.667969 L 199.953125 318.207031 C 199.5 318.628906 199.144531 319.171875 198.953125 319.808594 C 198.375 321.714844 199.453125 323.726562 201.359375 324.304688 L 202.402344 320.855469 L 201.359375 324.304688 Z M 232.492188 333.71875 " fill-opacity="1" fill-rule="nonzero"/><g clip-path="url(#fd9c93afcf)"><path fill="#117ea9" d="M 280.980469 54.914062 C 279.558594 53.527344 277.28125 53.558594 275.898438 54.984375 C 274.515625 56.40625 274.546875 58.679688 275.96875 60.066406 C 290.382812 74.121094 302.007812 91.015625 309.945312 109.835938 C 317.578125 127.941406 321.796875 147.859375 321.796875 168.792969 C 321.796875 204.945312 309.164062 238.144531 288.074219 264.21875 C 266.574219 290.800781 236.296875 309.976562 201.65625 317.332031 C 199.714844 317.746094 198.472656 319.65625 198.882812 321.597656 C 199.296875 323.542969 201.207031 324.785156 203.148438 324.371094 C 239.449219 316.664062 271.167969 296.582031 293.675781 268.753906 C 315.773438 241.4375 329.003906 206.660156 329.003906 168.792969 C 329.003906 146.921875 324.574219 126.054688 316.5625 107.046875 C 308.246094 87.320312 296.066406 69.625 280.980469 54.914062 Z M 280.980469 54.914062 " fill-opacity="1" fill-rule="nonzero"/></g><path fill="#117ea9" d="M 107.460938 3.855469 C 105.554688 3.28125 103.542969 4.359375 102.96875 6.265625 C 102.394531 8.167969 103.46875 10.179688 105.375 10.753906 L 130.957031 18.492188 L 112.675781 37.976562 C 111.316406 39.425781 111.386719 41.699219 112.832031 43.0625 C 114.277344 44.421875 116.554688 44.351562 117.914062 42.90625 L 139.996094 19.367188 C 140.453125 18.945312 140.808594 18.402344 141 17.765625 C 141.574219 15.859375 140.496094 13.847656 138.59375 13.269531 L 137.550781 16.722656 L 138.589844 13.273438 Z M 107.460938 3.855469 " fill-opacity="1" fill-rule="nonzero"/><path fill="#4dac4d" d="M 132.453125 216.089844 C 131.359375 214.433594 129.128906 213.976562 127.472656 215.074219 C 125.816406 216.171875 125.359375 218.402344 126.457031 220.058594 C 127.726562 221.980469 129.648438 223.570312 131.976562 224.648438 C 134.105469 225.636719 136.589844 226.207031 139.222656 226.207031 C 143.011719 226.207031 146.492188 225.023438 149.058594 223.113281 C 151.929688 220.972656 153.710938 217.929688 153.710938 214.492188 C 153.710938 211.277344 152.160156 208.410156 149.609375 206.300781 C 147.308594 204.394531 144.148438 203.113281 140.632812 202.839844 C 138.066406 202.644531 135.882812 202.019531 134.476562 200.976562 C 133.59375 200.316406 133.058594 199.429688 133.058594 198.320312 C 133.058594 197.277344 133.71875 196.265625 134.785156 195.476562 C 136.15625 194.453125 138.117188 193.816406 140.339844 193.816406 C 141.917969 193.816406 143.367188 194.140625 144.574219 194.699219 C 145.691406 195.21875 146.574219 195.921875 147.105469 196.726562 C 148.203125 198.382812 150.433594 198.835938 152.089844 197.742188 C 153.746094 196.644531 154.199219 194.414062 153.105469 192.757812 C 151.832031 190.835938 149.914062 189.246094 147.585938 188.164062 C 145.457031 187.179688 142.972656 186.609375 140.339844 186.609375 C 136.550781 186.609375 133.066406 187.789062 130.503906 189.703125 C 127.628906 191.84375 125.851562 194.886719 125.851562 198.320312 C 125.851562 201.925781 127.484375 204.730469 130.199219 206.75 C 132.738281 208.636719 136.226562 209.722656 140.097656 210.019531 C 142.085938 210.175781 143.816406 210.851562 145.019531 211.847656 C 145.941406 212.609375 146.5 213.542969 146.5 214.492188 C 146.5 215.535156 145.84375 216.546875 144.777344 217.339844 C 143.402344 218.363281 141.445312 218.996094 139.222656 218.996094 C 137.640625 218.996094 136.191406 218.675781 134.988281 218.117188 C 133.871094 217.597656 132.988281 216.894531 132.453125 216.089844 Z M 132.453125 216.089844 " fill-opacity="1" fill-rule="nonzero"/><path fill="#4dac4d" d="M 143.386719 184.605469 C 143.386719 182.613281 141.769531 181 139.78125 181 C 137.789062 181 136.175781 182.613281 136.175781 184.605469 L 136.175781 228.210938 C 136.175781 230.203125 137.789062 231.816406 139.78125 231.816406 C 141.769531 231.816406 143.386719 230.203125 143.386719 228.210938 Z M 143.386719 184.605469 " fill-opacity="1" fill-rule="nonzero"/><path fill="#4dac4d" d="M 97.214844 202.804688 C 95.222656 202.804688 93.609375 204.417969 93.609375 206.40625 C 93.609375 208.398438 95.222656 210.011719 97.214844 210.011719 L 107.117188 210.011719 C 109.105469 210.011719 110.722656 208.398438 110.722656 206.40625 C 110.722656 204.417969 109.105469 202.804688 107.117188 202.804688 Z M 97.214844 202.804688 " fill-opacity="1" fill-rule="nonzero"/><path fill="#ffe600" d="M 174.933594 255.992188 C 173.835938 254.335938 171.605469 253.882812 169.949219 254.976562 C 168.292969 256.074219 167.839844 258.304688 168.9375 259.960938 C 170.203125 261.878906 172.121094 263.46875 174.441406 264.542969 C 176.566406 265.527344 179.046875 266.097656 181.675781 266.097656 C 185.457031 266.097656 188.929688 264.917969 191.492188 263.011719 C 194.359375 260.875 196.132812 257.835938 196.132812 254.40625 C 196.132812 251.195312 194.585938 248.332031 192.042969 246.226562 C 189.746094 244.324219 186.589844 243.046875 183.085938 242.773438 C 180.523438 242.578125 178.351562 241.957031 176.949219 240.917969 C 176.070312 240.261719 175.539062 239.378906 175.539062 238.277344 C 175.539062 237.242188 176.195312 236.234375 177.253906 235.445312 C 178.621094 234.425781 180.574219 233.796875 182.789062 233.796875 C 184.363281 233.796875 185.808594 234.117188 187.007812 234.671875 C 188.121094 235.1875 189 235.890625 189.53125 236.691406 C 190.625 238.347656 192.859375 238.800781 194.515625 237.707031 C 196.171875 236.609375 196.625 234.378906 195.527344 232.722656 C 194.261719 230.804688 192.34375 229.214844 190.019531 228.140625 C 187.898438 227.15625 185.417969 226.585938 182.789062 226.585938 C 179.007812 226.585938 175.53125 227.765625 172.972656 229.671875 C 170.105469 231.808594 168.332031 234.847656 168.332031 238.277344 C 168.332031 241.875 169.957031 244.675781 172.667969 246.691406 C 175.203125 248.574219 178.6875 249.660156 182.550781 249.957031 C 184.53125 250.109375 186.253906 250.78125 187.453125 251.773438 C 188.367188 252.53125 188.925781 253.460938 188.925781 254.40625 C 188.925781 255.441406 188.269531 256.449219 187.210938 257.238281 C 185.84375 258.257812 183.890625 258.886719 181.675781 258.886719 C 180.101562 258.886719 178.65625 258.566406 177.457031 258.011719 C 176.34375 257.496094 175.464844 256.792969 174.933594 255.992188 Z M 174.933594 255.992188 " fill-opacity="1" fill-rule="nonzero"/><path fill="#ffe600" d="M 185.835938 224.597656 C 185.835938 222.605469 184.222656 220.992188 182.230469 220.992188 C 180.242188 220.992188 178.628906 222.605469 178.628906 224.597656 L 178.628906 268.089844 C 178.628906 270.078125 180.242188 271.691406 182.230469 271.691406 C 184.222656 271.691406 185.835938 270.078125 185.835938 268.089844 Z M 185.835938 224.597656 " fill-opacity="1" fill-rule="nonzero"/><path fill="#117ea9" d="M 215.050781 26.519531 C 213.246094 25.6875 211.109375 26.472656 210.277344 28.277344 C 209.445312 30.082031 210.234375 32.21875 212.035156 33.050781 L 220.707031 37.078125 L 215.207031 44.910156 C 214.066406 46.535156 214.457031 48.78125 216.082031 49.921875 C 217.707031 51.066406 219.949219 50.675781 221.09375 49.050781 L 228.933594 37.882812 C 229.113281 37.664062 229.265625 37.417969 229.390625 37.148438 C 230.230469 35.34375 229.445312 33.199219 227.640625 32.359375 L 226.121094 35.628906 L 227.628906 32.363281 Z M 215.050781 26.519531 " fill-opacity="1" fill-rule="nonzero"/><path fill="#117ea9" d="M 112.859375 62.253906 C 110.941406 62.765625 109.800781 64.738281 110.3125 66.660156 C 110.824219 68.578125 112.800781 69.722656 114.71875 69.207031 L 226.277344 39.3125 C 228.199219 38.800781 229.339844 36.828125 228.824219 34.90625 C 228.3125 32.988281 226.339844 31.847656 224.417969 32.359375 Z M 112.859375 62.253906 " fill-opacity="1" fill-rule="nonzero"/></svg>