<svg xmlns="http://www.w3.org/2000/svg" xmlns:xlink="http://www.w3.org/1999/xlink" width="450" zoomAndPan="magnify" viewBox="0 0 337.5 337.500003" height="450" preserveAspectRatio="xMidYMid meet" version="1.0"><defs><clipPath id="2658d91825"><path d="M 1.660156 1.660156 L 336.160156 1.660156 L 336.160156 336.160156 L 1.660156 336.160156 Z M 1.660156 1.660156 " clip-rule="nonzero"/></clipPath></defs><g clip-path="url(#2658d91825)"><path fill="#c80a50" d="M 336.160156 168.910156 C 336.160156 171.648438 336.09375 174.382812 335.960938 177.117188 C 335.824219 179.851562 335.625 182.578125 335.355469 185.304688 C 335.085938 188.027344 334.75 190.742188 334.351562 193.453125 C 333.949219 196.160156 333.480469 198.855469 332.945312 201.539062 C 332.414062 204.222656 331.8125 206.894531 331.148438 209.550781 C 330.484375 212.203125 329.753906 214.839844 328.957031 217.460938 C 328.164062 220.078125 327.304688 222.679688 326.382812 225.253906 C 325.460938 227.832031 324.476562 230.386719 323.429688 232.914062 C 322.382812 235.441406 321.273438 237.945312 320.101562 240.417969 C 318.933594 242.894531 317.703125 245.335938 316.410156 247.75 C 315.121094 250.164062 313.773438 252.546875 312.367188 254.894531 C 310.957031 257.242188 309.496094 259.554688 307.972656 261.828125 C 306.453125 264.105469 304.878906 266.34375 303.246094 268.542969 C 301.617188 270.738281 299.933594 272.898438 298.195312 275.011719 C 296.460938 277.128906 294.671875 279.199219 292.835938 281.230469 C 290.996094 283.257812 289.109375 285.238281 287.175781 287.175781 C 285.238281 289.109375 283.257812 290.996094 281.230469 292.835938 C 279.199219 294.671875 277.128906 296.460938 275.011719 298.195312 C 272.898438 299.933594 270.738281 301.617188 268.542969 303.246094 C 266.34375 304.878906 264.105469 306.453125 261.828125 307.972656 C 259.554688 309.496094 257.242188 310.957031 254.894531 312.367188 C 252.546875 313.773438 250.164062 315.121094 247.75 316.410156 C 245.335938 317.703125 242.894531 318.933594 240.417969 320.101562 C 237.945312 321.273438 235.441406 322.382812 232.914062 323.429688 C 230.386719 324.476562 227.832031 325.460938 225.253906 326.382812 C 222.679688 327.304688 220.078125 328.164062 217.460938 328.957031 C 214.839844 329.753906 212.203125 330.484375 209.550781 331.148438 C 206.894531 331.8125 204.222656 332.414062 201.539062 332.945312 C 198.855469 333.480469 196.160156 333.949219 193.453125 334.351562 C 190.742188 334.75 188.027344 335.085938 185.304688 335.355469 C 182.578125 335.625 179.851562 335.824219 177.117188 335.960938 C 174.382812 336.09375 171.648438 336.160156 168.910156 336.160156 C 166.171875 336.160156 163.4375 336.09375 160.703125 335.960938 C 157.96875 335.824219 155.242188 335.625 152.515625 335.355469 C 149.792969 335.085938 147.078125 334.75 144.371094 334.351562 C 141.664062 333.949219 138.964844 333.480469 136.28125 332.945312 C 133.597656 332.414062 130.925781 331.8125 128.273438 331.148438 C 125.617188 330.484375 122.980469 329.753906 120.359375 328.957031 C 117.742188 328.164062 115.144531 327.304688 112.566406 326.382812 C 109.988281 325.460938 107.433594 324.476562 104.90625 323.429688 C 102.378906 322.382812 99.875 321.273438 97.402344 320.101562 C 94.925781 318.933594 92.484375 317.703125 90.070312 316.410156 C 87.65625 315.121094 85.273438 313.773438 82.925781 312.367188 C 80.578125 310.957031 78.265625 309.496094 75.992188 307.972656 C 73.714844 306.453125 71.476562 304.878906 69.28125 303.246094 C 67.082031 301.617188 64.925781 299.933594 62.808594 298.195312 C 60.691406 296.460938 58.621094 294.671875 56.59375 292.835938 C 54.5625 290.996094 52.582031 289.109375 50.648438 287.175781 C 48.710938 285.238281 46.824219 283.257812 44.988281 281.230469 C 43.148438 279.199219 41.359375 277.128906 39.625 275.011719 C 37.886719 272.898438 36.203125 270.738281 34.574219 268.542969 C 32.945312 266.34375 31.367188 264.105469 29.847656 261.828125 C 28.328125 259.554688 26.863281 257.242188 25.457031 254.894531 C 24.046875 252.546875 22.699219 250.164062 21.410156 247.75 C 20.117188 245.335938 18.886719 242.894531 17.71875 240.417969 C 16.546875 237.945312 15.4375 235.441406 14.390625 232.914062 C 13.34375 230.386719 12.359375 227.832031 11.4375 225.253906 C 10.515625 222.679688 9.65625 220.078125 8.863281 217.460938 C 8.066406 214.839844 7.339844 212.203125 6.671875 209.550781 C 6.007812 206.894531 5.410156 204.222656 4.875 201.539062 C 4.339844 198.855469 3.871094 196.160156 3.472656 193.453125 C 3.070312 190.742188 2.734375 188.027344 2.464844 185.304688 C 2.199219 182.578125 1.996094 179.851562 1.863281 177.117188 C 1.726562 174.382812 1.660156 171.648438 1.660156 168.910156 C 1.660156 166.171875 1.726562 163.4375 1.863281 160.703125 C 1.996094 157.96875 2.199219 155.242188 2.464844 152.515625 C 2.734375 149.792969 3.070312 147.078125 3.472656 144.371094 C 3.871094 141.664062 4.339844 138.964844 4.875 136.28125 C 5.410156 133.597656 6.007812 130.925781 6.671875 128.273438 C 7.339844 125.617188 8.066406 122.980469 8.863281 120.359375 C 9.65625 117.742188 10.515625 115.144531 11.4375 112.566406 C 12.359375 109.988281 13.34375 107.4375 14.390625 104.90625 C 15.4375 102.378906 16.546875 99.875 17.71875 97.402344 C 18.886719 94.925781 20.117188 92.484375 21.410156 90.070312 C 22.699219 87.65625 24.046875 85.273438 25.457031 82.925781 C 26.863281 80.578125 28.328125 78.265625 29.847656 75.992188 C 31.367188 73.714844 32.945312 71.476562 34.574219 69.28125 C 36.203125 67.082031 37.886719 64.925781 39.625 62.808594 C 41.359375 60.691406 43.148438 58.621094 44.988281 56.59375 C 46.824219 54.5625 48.710938 52.582031 50.648438 50.648438 C 52.582031 48.710938 54.5625 46.824219 56.59375 44.988281 C 58.621094 43.148438 60.691406 41.359375 62.808594 39.625 C 64.925781 37.886719 67.082031 36.203125 69.28125 34.574219 C 71.476562 32.945312 73.714844 31.367188 75.992188 29.847656 C 78.265625 28.328125 80.578125 26.863281 82.925781 25.457031 C 85.273438 24.046875 87.65625 22.699219 90.070312 21.410156 C 92.484375 20.117188 94.925781 18.886719 97.402344 17.71875 C 99.875 16.546875 102.378906 15.4375 104.90625 14.390625 C 107.4375 13.34375 109.988281 12.359375 112.566406 11.4375 C 115.144531 10.515625 117.742188 9.65625 120.359375 8.863281 C 122.980469 8.066406 125.617188 7.339844 128.273438 6.671875 C 130.925781 6.007812 133.597656 5.410156 136.28125 4.875 C 138.964844 4.339844 141.664062 3.871094 144.371094 3.472656 C 147.078125 3.070312 149.792969 2.734375 152.515625 2.464844 C 155.242188 2.199219 157.96875 1.996094 160.703125 1.863281 C 163.4375 1.726562 166.171875 1.660156 168.910156 1.660156 C 171.648438 1.660156 174.382812 1.726562 177.117188 1.863281 C 179.851562 1.996094 182.578125 2.199219 185.304688 2.464844 C 188.027344 2.734375 190.742188 3.070312 193.453125 3.472656 C 196.160156 3.871094 198.855469 4.339844 201.539062 4.875 C 204.222656 5.410156 206.894531 6.007812 209.550781 6.671875 C 212.203125 7.339844 214.839844 8.066406 217.460938 8.863281 C 220.078125 9.65625 222.679688 10.515625 225.253906 11.4375 C 227.832031 12.359375 230.386719 13.34375 232.914062 14.390625 C 235.441406 15.4375 237.945312 16.546875 240.417969 17.71875 C 242.894531 18.886719 245.335938 20.117188 247.75 21.410156 C 250.164062 22.699219 252.546875 24.046875 254.894531 25.457031 C 257.242188 26.863281 259.554688 28.328125 261.828125 29.847656 C 264.105469 31.367188 266.34375 32.945312 268.542969 34.574219 C 270.738281 36.203125 272.898438 37.886719 275.011719 39.625 C 277.128906 41.359375 279.199219 43.148438 281.230469 44.988281 C 283.257812 46.824219 285.238281 48.710938 287.175781 50.648438 C 289.109375 52.582031 290.996094 54.5625 292.835938 56.59375 C 294.671875 58.621094 296.460938 60.691406 298.195312 62.808594 C 299.933594 64.925781 301.617188 67.082031 303.246094 69.28125 C 304.878906 71.476562 306.453125 73.714844 307.972656 75.992188 C 309.496094 78.265625 310.957031 80.578125 312.367188 82.925781 C 313.773438 85.273438 315.121094 87.65625 316.410156 90.070312 C 317.703125 92.484375 318.933594 94.925781 320.101562 97.402344 C 321.273438 99.875 322.382812 102.378906 323.429688 104.90625 C 324.476562 107.4375 325.460938 109.988281 326.382812 112.566406 C 327.304688 115.144531 328.164062 117.742188 328.957031 120.359375 C 329.753906 122.980469 330.484375 125.617188 331.148438 128.273438 C 331.8125 130.925781 332.414062 133.597656 332.945312 136.28125 C 333.480469 138.964844 333.949219 141.664062 334.351562 144.371094 C 334.75 147.078125 335.085938 149.792969 335.355469 152.515625 C 335.625 155.242188 335.824219 157.96875 335.960938 160.703125 C 336.09375 163.4375 336.160156 166.171875 336.160156 168.910156 Z M 336.160156 168.910156 " fill-opacity="1" fill-rule="nonzero"/></g><path fill="#f0f0f0" d="M 259.484375 60.199219 L 60.199219 259.484375 C 55.097656 253.390625 50.546875 246.914062 46.546875 240.054688 C 42.546875 233.191406 39.152344 226.039062 36.363281 218.601562 C 33.578125 211.164062 31.433594 203.542969 29.9375 195.742188 C 28.445312 187.941406 27.617188 180.070312 27.457031 172.125 C 27.390625 171.097656 27.390625 170.003906 27.390625 168.910156 C 27.390625 166.59375 27.449219 164.28125 27.5625 161.964844 C 27.675781 159.652344 27.847656 157.34375 28.074219 155.039062 C 28.300781 152.734375 28.582031 150.4375 28.921875 148.144531 C 29.261719 145.855469 29.660156 143.574219 30.109375 141.300781 C 30.5625 139.03125 31.070312 136.769531 31.632812 134.523438 C 32.195312 132.277344 32.8125 130.046875 33.484375 127.828125 C 34.15625 125.613281 34.882812 123.414062 35.664062 121.234375 C 36.445312 119.054688 37.277344 116.894531 38.164062 114.753906 C 39.050781 112.613281 39.988281 110.496094 40.980469 108.402344 C 41.96875 106.308594 43.011719 104.242188 44.101562 102.199219 C 45.195312 100.15625 46.335938 98.140625 47.527344 96.15625 C 48.714844 94.167969 49.953125 92.210938 51.242188 90.285156 C 52.527344 88.359375 53.863281 86.46875 55.242188 84.609375 C 56.621094 82.746094 58.046875 80.921875 59.515625 79.132812 C 60.984375 77.339844 62.496094 75.589844 64.050781 73.871094 C 65.605469 72.15625 67.203125 70.480469 68.839844 68.839844 C 70.480469 67.203125 72.15625 65.605469 73.871094 64.050781 C 75.589844 62.496094 77.339844 60.984375 79.132812 59.515625 C 80.921875 58.046875 82.746094 56.621094 84.609375 55.242188 C 86.46875 53.863281 88.359375 52.527344 90.285156 51.242188 C 92.210938 49.953125 94.167969 48.714844 96.15625 47.527344 C 98.140625 46.335938 100.15625 45.195312 102.199219 44.101562 C 104.242188 43.011719 106.308594 41.96875 108.402344 40.980469 C 110.496094 39.988281 112.613281 39.050781 114.753906 38.164062 C 116.894531 37.277344 119.054688 36.445312 121.234375 35.664062 C 123.414062 34.882812 125.613281 34.15625 127.828125 33.484375 C 130.046875 32.8125 132.277344 32.195312 134.523438 31.632812 C 136.769531 31.070312 139.03125 30.5625 141.300781 30.109375 C 143.574219 29.660156 145.855469 29.261719 148.144531 28.921875 C 150.4375 28.582031 152.734375 28.300781 155.039062 28.074219 C 157.34375 27.847656 159.652344 27.675781 161.964844 27.5625 C 164.28125 27.449219 166.59375 27.390625 168.910156 27.390625 C 207.769531 27.390625 244.65625 45.402344 259.484375 60.199219 Z M 259.484375 60.199219 " fill-opacity="1" fill-rule="nonzero"/><path fill="#f0f0f0" d="M 310.429688 168.910156 C 310.429688 170.75 310.367188 172.125 310.367188 172.125 C 310.292969 175.386719 310.105469 178.636719 309.804688 181.882812 C 309.507812 185.128906 309.097656 188.359375 308.574219 191.578125 C 308.050781 194.796875 307.417969 197.992188 306.675781 201.164062 C 305.933594 204.335938 305.082031 207.480469 304.121094 210.597656 C 303.160156 213.710938 302.09375 216.789062 300.921875 219.832031 C 299.75 222.871094 298.472656 225.867188 297.09375 228.820312 C 295.710938 231.773438 294.230469 234.675781 292.652344 237.527344 C 291.070312 240.378906 289.394531 243.171875 287.621094 245.90625 C 285.847656 248.640625 283.980469 251.308594 282.023438 253.914062 C 280.066406 256.519531 278.019531 259.054688 275.886719 261.519531 C 273.753906 263.984375 271.539062 266.375 269.238281 268.683594 C 266.941406 270.996094 264.566406 273.226562 262.113281 275.371094 C 259.664062 277.519531 257.140625 279.582031 254.542969 281.554688 C 251.949219 283.527344 249.289062 285.40625 246.566406 287.195312 C 243.84375 288.984375 241.058594 290.679688 238.21875 292.277344 C 235.375 293.871094 232.484375 295.371094 229.539062 296.765625 C 226.59375 298.164062 223.605469 299.457031 220.570312 300.648438 C 217.535156 301.835938 214.464844 302.921875 211.355469 303.898438 C 208.246094 304.878906 205.105469 305.75 201.9375 306.507812 C 198.765625 307.269531 195.574219 307.921875 192.359375 308.460938 C 189.148438 309.003906 185.917969 309.433594 182.675781 309.75 C 179.429688 310.066406 176.179688 310.273438 172.921875 310.367188 C 169.664062 310.460938 166.40625 310.441406 163.148438 310.308594 C 159.890625 310.175781 156.644531 309.929688 153.402344 309.574219 C 150.164062 309.21875 146.941406 308.75 143.734375 308.171875 C 140.523438 307.589844 137.339844 306.902344 134.179688 306.101562 C 131.023438 305.304688 127.894531 304.398438 124.796875 303.382812 C 121.699219 302.367188 118.640625 301.246094 115.621094 300.019531 C 112.601562 298.792969 109.625 297.460938 106.699219 296.03125 C 103.769531 294.597656 100.894531 293.066406 98.074219 291.433594 C 95.25 289.804688 92.488281 288.078125 89.785156 286.257812 C 87.082031 284.433594 84.445312 282.523438 81.875 280.519531 C 80.652344 279.617188 79.496094 278.652344 78.339844 277.625 L 277.625 78.339844 C 296.574219 103.617188 310.429688 129.421875 310.429688 168.910156 Z M 310.429688 168.910156 " fill-opacity="1" fill-rule="nonzero"/><path fill="#d2d2d2" d="M 168.910156 33.824219 C 166.628906 33.824219 164.347656 33.878906 162.066406 33.988281 C 159.789062 34.097656 157.511719 34.265625 155.238281 34.484375 C 152.96875 34.707031 150.703125 34.980469 148.445312 35.3125 C 146.1875 35.640625 143.9375 36.023438 141.699219 36.464844 C 139.457031 36.902344 137.230469 37.394531 135.011719 37.941406 C 132.796875 38.488281 130.597656 39.089844 128.410156 39.742188 C 126.222656 40.394531 124.050781 41.101562 121.898438 41.859375 C 119.746094 42.617188 117.613281 43.425781 115.5 44.289062 C 113.386719 45.148438 111.296875 46.0625 109.226562 47.023438 C 107.15625 47.988281 105.109375 49 103.089844 50.0625 C 101.070312 51.125 99.078125 52.234375 97.109375 53.390625 C 95.144531 54.550781 93.207031 55.753906 91.296875 57.007812 C 89.386719 58.257812 87.511719 59.554688 85.664062 60.898438 C 83.820312 62.242188 82.007812 63.628906 80.230469 65.058594 C 78.453125 66.488281 76.707031 67.960938 75 69.476562 C 73.292969 70.992188 71.625 72.546875 69.992188 74.140625 C 68.359375 75.738281 66.769531 77.371094 65.214844 79.042969 C 63.660156 80.71875 62.148438 82.425781 60.679688 84.171875 C 59.210938 85.917969 57.78125 87.699219 56.398438 89.511719 C 55.015625 91.328125 53.675781 93.175781 52.382812 95.054688 C 51.085938 96.933594 49.839844 98.84375 48.636719 100.785156 C 47.433594 102.726562 46.277344 104.695312 45.171875 106.691406 C 44.066406 108.6875 43.007812 110.707031 42 112.753906 C 40.988281 114.800781 40.03125 116.871094 39.121094 118.964844 C 38.210938 121.058594 37.355469 123.175781 36.546875 125.308594 C 35.742188 127.445312 34.988281 129.597656 34.285156 131.769531 C 33.582031 133.941406 32.933594 136.128906 32.335938 138.332031 C 31.738281 140.535156 31.195312 142.75 30.707031 144.980469 C 30.21875 147.210938 29.785156 149.449219 29.402344 151.699219 C 29.023438 153.949219 28.695312 156.207031 28.425781 158.476562 C 28.152344 160.742188 27.9375 163.011719 27.773438 165.289062 C 27.613281 167.566406 27.507812 169.84375 27.457031 172.125 C 27.390625 171.097656 27.390625 170.003906 27.390625 168.910156 C 27.390625 166.59375 27.449219 164.28125 27.5625 161.964844 C 27.675781 159.652344 27.847656 157.34375 28.074219 155.039062 C 28.300781 152.734375 28.582031 150.4375 28.921875 148.144531 C 29.261719 145.855469 29.660156 143.574219 30.109375 141.300781 C 30.5625 139.03125 31.070312 136.769531 31.632812 134.523438 C 32.195312 132.277344 32.8125 130.046875 33.484375 127.828125 C 34.15625 125.613281 34.882812 123.414062 35.664062 121.234375 C 36.445312 119.054688 37.277344 116.894531 38.164062 114.753906 C 39.050781 112.613281 39.988281 110.496094 40.980469 108.402344 C 41.96875 106.308594 43.011719 104.242188 44.101562 102.199219 C 45.195312 100.15625 46.335938 98.140625 47.527344 96.15625 C 48.714844 94.167969 49.953125 92.210938 51.242188 90.285156 C 52.527344 88.359375 53.863281 86.46875 55.242188 84.609375 C 56.621094 82.746094 58.046875 80.921875 59.515625 79.132812 C 60.984375 77.339844 62.496094 75.589844 64.050781 73.871094 C 65.605469 72.15625 67.203125 70.480469 68.839844 68.839844 C 70.480469 67.203125 72.15625 65.605469 73.871094 64.050781 C 75.589844 62.496094 77.339844 60.984375 79.132812 59.515625 C 80.921875 58.046875 82.746094 56.621094 84.609375 55.242188 C 86.46875 53.863281 88.359375 52.527344 90.285156 51.242188 C 92.210938 49.953125 94.167969 48.714844 96.15625 47.527344 C 98.140625 46.335938 100.15625 45.195312 102.199219 44.101562 C 104.242188 43.011719 106.308594 41.96875 108.402344 40.980469 C 110.496094 39.988281 112.613281 39.050781 114.753906 38.164062 C 116.894531 37.277344 119.054688 36.445312 121.234375 35.664062 C 123.414062 34.882812 125.613281 34.15625 127.828125 33.484375 C 130.046875 32.8125 132.277344 32.195312 134.523438 31.632812 C 136.769531 31.070312 139.03125 30.5625 141.300781 30.109375 C 143.574219 29.660156 145.855469 29.261719 148.144531 28.921875 C 150.4375 28.582031 152.734375 28.300781 155.039062 28.074219 C 157.34375 27.847656 159.652344 27.675781 161.964844 27.5625 C 164.28125 27.449219 166.59375 27.390625 168.910156 27.390625 C 207.769531 27.390625 244.65625 45.402344 259.484375 60.199219 L 255.816406 63.863281 C 249.671875 59.019531 243.164062 54.71875 236.296875 50.964844 C 229.429688 47.210938 222.296875 44.058594 214.902344 41.5 C 207.503906 38.945312 199.949219 37.019531 192.226562 35.734375 C 184.507812 34.445312 176.738281 33.808594 168.910156 33.824219 Z M 168.910156 33.824219 " fill-opacity="1" fill-rule="nonzero"/><path fill="#d2d2d2" d="M 310.429688 168.910156 C 310.429688 169.875 310.429688 170.90625 310.367188 171.804688 C 310.179688 163.890625 309.332031 156.050781 307.824219 148.277344 C 306.316406 140.507812 304.167969 132.917969 301.382812 125.507812 C 298.59375 118.101562 295.207031 110.976562 291.21875 104.136719 C 287.230469 97.300781 282.699219 90.84375 277.625 84.769531 L 81.875 280.519531 C 80.652344 279.617188 79.496094 278.652344 78.339844 277.625 L 277.625 78.339844 C 296.574219 103.617188 310.429688 129.421875 310.429688 168.910156 Z M 310.429688 168.910156 " fill-opacity="1" fill-rule="nonzero"/><path fill="#d2d2d2" d="M 265.402344 123.882812 L 265.402344 258.96875 C 265.402344 259.390625 265.359375 259.808594 265.277344 260.222656 C 265.195312 260.636719 265.074219 261.039062 264.910156 261.429688 C 264.75 261.820312 264.550781 262.191406 264.316406 262.542969 C 264.082031 262.894531 263.816406 263.21875 263.515625 263.515625 C 263.21875 263.816406 262.894531 264.082031 262.542969 264.316406 C 262.191406 264.550781 261.820312 264.75 261.429688 264.910156 C 261.039062 265.074219 260.636719 265.195312 260.222656 265.277344 C 259.808594 265.359375 259.390625 265.402344 258.96875 265.402344 L 78.851562 265.402344 C 78.429688 265.402344 78.011719 265.359375 77.597656 265.277344 C 77.183594 265.195312 76.78125 265.074219 76.390625 264.910156 C 76 264.75 75.628906 264.550781 75.277344 264.316406 C 74.929688 264.082031 74.601562 263.816406 74.304688 263.515625 C 74.003906 263.21875 73.738281 262.894531 73.503906 262.542969 C 73.269531 262.191406 73.070312 261.820312 72.910156 261.429688 C 72.75 261.039062 72.625 260.636719 72.542969 260.222656 C 72.460938 259.808594 72.421875 259.390625 72.421875 258.96875 L 72.421875 123.882812 Z M 265.402344 123.882812 " fill-opacity="1" fill-rule="nonzero"/><path fill="#a00028" d="M 232.078125 123.882812 L 90.558594 265.402344 L 78.851562 265.402344 C 78.429688 265.402344 78.011719 265.359375 77.597656 265.277344 C 77.183594 265.195312 76.78125 265.074219 76.390625 264.910156 C 76 264.75 75.628906 264.550781 75.277344 264.316406 C 74.929688 264.082031 74.601562 263.816406 74.304688 263.515625 C 74.003906 263.21875 73.738281 262.894531 73.503906 262.542969 C 73.269531 262.191406 73.070312 261.820312 72.910156 261.429688 C 72.75 261.039062 72.625 260.636719 72.542969 260.222656 C 72.460938 259.808594 72.421875 259.390625 72.421875 258.96875 L 72.421875 247.261719 L 195.800781 123.882812 Z M 232.078125 123.882812 " fill-opacity="1" fill-rule="nonzero"/><path fill="#fab400" d="M 265.402344 117.449219 L 265.402344 252.535156 C 265.402344 252.957031 265.359375 253.375 265.277344 253.789062 C 265.195312 254.203125 265.074219 254.605469 264.910156 254.996094 C 264.75 255.386719 264.550781 255.757812 264.316406 256.109375 C 264.082031 256.460938 263.816406 256.785156 263.515625 257.085938 C 263.21875 257.382812 262.894531 257.648438 262.542969 257.882812 C 262.191406 258.117188 261.820312 258.316406 261.429688 258.480469 C 261.039062 258.640625 260.636719 258.761719 260.222656 258.84375 C 259.808594 258.925781 259.390625 258.96875 258.96875 258.96875 L 78.851562 258.96875 C 78.429688 258.96875 78.011719 258.925781 77.597656 258.84375 C 77.183594 258.761719 76.78125 258.640625 76.390625 258.480469 C 76 258.316406 75.628906 258.117188 75.277344 257.882812 C 74.929688 257.648438 74.601562 257.382812 74.304688 257.085938 C 74.003906 256.785156 73.738281 256.460938 73.503906 256.109375 C 73.269531 255.757812 73.070312 255.386719 72.910156 254.996094 C 72.75 254.605469 72.625 254.203125 72.542969 253.789062 C 72.460938 253.375 72.421875 252.957031 72.421875 252.535156 L 72.421875 117.449219 Z M 265.402344 117.449219 " fill-opacity="1" fill-rule="nonzero"/><path fill="#dc9600" d="M 125.289062 230.824219 L 99.558594 198.660156 C 99.101562 198.089844 98.753906 197.460938 98.511719 196.773438 C 98.269531 196.082031 98.148438 195.371094 98.148438 194.640625 C 98.148438 193.910156 98.269531 193.199219 98.511719 192.511719 C 98.753906 191.820312 99.101562 191.191406 99.558594 190.621094 L 125.289062 158.457031 C 125.554688 158.128906 125.847656 157.828125 126.171875 157.554688 C 126.496094 157.28125 126.839844 157.046875 127.210938 156.84375 C 127.582031 156.636719 127.96875 156.472656 128.371094 156.34375 C 128.773438 156.21875 129.183594 156.128906 129.605469 156.085938 C 130.023438 156.039062 130.445312 156.03125 130.867188 156.070312 C 131.285156 156.105469 131.699219 156.183594 132.105469 156.300781 C 132.511719 156.417969 132.902344 156.574219 133.277344 156.769531 C 133.652344 156.960938 134.003906 157.191406 134.332031 157.457031 C 134.664062 157.71875 134.964844 158.011719 135.234375 158.335938 C 135.507812 158.660156 135.746094 159.007812 135.949219 159.375 C 136.152344 159.746094 136.320312 160.132812 136.445312 160.535156 C 136.574219 160.9375 136.660156 161.347656 136.707031 161.769531 C 136.753906 162.1875 136.761719 162.609375 136.722656 163.03125 C 136.6875 163.449219 136.609375 163.863281 136.492188 164.269531 C 136.375 164.675781 136.21875 165.066406 136.027344 165.441406 C 135.832031 165.816406 135.601562 166.167969 135.339844 166.5 L 112.824219 194.640625 L 135.339844 222.785156 C 135.601562 223.113281 135.832031 223.464844 136.027344 223.839844 C 136.222656 224.214844 136.378906 224.605469 136.496094 225.011719 C 136.613281 225.417969 136.691406 225.832031 136.726562 226.253906 C 136.761719 226.675781 136.757812 227.09375 136.710938 227.515625 C 136.664062 227.933594 136.578125 228.347656 136.449219 228.75 C 136.324219 229.152344 136.15625 229.539062 135.953125 229.910156 C 135.75 230.277344 135.511719 230.625 135.238281 230.949219 C 134.96875 231.273438 134.667969 231.566406 134.335938 231.832031 C 134.007812 232.09375 133.652344 232.324219 133.277344 232.519531 C 132.902344 232.714844 132.511719 232.867188 132.105469 232.988281 C 131.703125 233.105469 131.289062 233.179688 130.867188 233.21875 C 130.445312 233.253906 130.023438 233.25 129.605469 233.203125 C 129.183594 233.15625 128.773438 233.066406 128.371094 232.941406 C 127.96875 232.8125 127.582031 232.648438 127.210938 232.441406 C 126.839844 232.238281 126.496094 232 126.171875 231.730469 C 125.847656 231.457031 125.554688 231.15625 125.289062 230.824219 Z M 125.289062 230.824219 " fill-opacity="1" fill-rule="nonzero"/><path fill="#dc9600" d="M 203.484375 231.828125 C 203.15625 231.566406 202.855469 231.269531 202.582031 230.949219 C 202.3125 230.625 202.074219 230.277344 201.871094 229.90625 C 201.664062 229.539062 201.5 229.152344 201.371094 228.75 C 201.246094 228.347656 201.15625 227.933594 201.109375 227.515625 C 201.0625 227.09375 201.058594 226.675781 201.09375 226.253906 C 201.132812 225.832031 201.207031 225.417969 201.324219 225.011719 C 201.445312 224.605469 201.601562 224.214844 201.792969 223.839844 C 201.988281 223.464844 202.21875 223.113281 202.484375 222.785156 L 224.996094 194.640625 L 202.484375 166.5 C 202.21875 166.167969 201.988281 165.816406 201.796875 165.441406 C 201.601562 165.066406 201.445312 164.675781 201.328125 164.269531 C 201.210938 163.863281 201.132812 163.449219 201.097656 163.03125 C 201.0625 162.609375 201.066406 162.1875 201.113281 161.769531 C 201.160156 161.347656 201.246094 160.9375 201.375 160.535156 C 201.503906 160.132812 201.667969 159.746094 201.871094 159.375 C 202.074219 159.007812 202.3125 158.660156 202.585938 158.335938 C 202.855469 158.011719 203.15625 157.71875 203.488281 157.457031 C 203.816406 157.191406 204.167969 156.960938 204.542969 156.769531 C 204.917969 156.574219 205.308594 156.417969 205.714844 156.300781 C 206.121094 156.183594 206.535156 156.105469 206.957031 156.070312 C 207.375 156.03125 207.796875 156.039062 208.214844 156.085938 C 208.636719 156.128906 209.046875 156.21875 209.449219 156.34375 C 209.851562 156.472656 210.238281 156.636719 210.609375 156.84375 C 210.980469 157.046875 211.328125 157.28125 211.648438 157.554688 C 211.972656 157.828125 212.265625 158.128906 212.53125 158.457031 L 238.261719 190.621094 C 238.71875 191.191406 239.066406 191.820312 239.308594 192.511719 C 239.550781 193.199219 239.671875 193.910156 239.671875 194.640625 C 239.671875 195.371094 239.550781 196.082031 239.308594 196.773438 C 239.066406 197.460938 238.71875 198.089844 238.261719 198.660156 L 212.53125 230.824219 C 212.265625 231.15625 211.972656 231.457031 211.648438 231.726562 C 211.328125 232 210.980469 232.238281 210.609375 232.441406 C 210.238281 232.644531 209.851562 232.8125 209.449219 232.941406 C 209.046875 233.066406 208.636719 233.152344 208.214844 233.199219 C 207.796875 233.246094 207.375 233.253906 206.953125 233.214844 C 206.535156 233.179688 206.121094 233.101562 205.714844 232.984375 C 205.308594 232.867188 204.917969 232.710938 204.542969 232.515625 C 204.167969 232.320312 203.816406 232.09375 203.484375 231.828125 Z M 203.484375 231.828125 " fill-opacity="1" fill-rule="nonzero"/><path fill="#dc9600" d="M 153.652344 232.78125 C 153.261719 232.625 152.886719 232.429688 152.53125 232.199219 C 152.179688 231.96875 151.851562 231.707031 151.546875 231.410156 C 151.246094 231.117188 150.976562 230.796875 150.738281 230.445312 C 150.496094 230.097656 150.296875 229.730469 150.128906 229.339844 C 149.960938 228.953125 149.835938 228.550781 149.746094 228.140625 C 149.660156 227.726562 149.613281 227.308594 149.609375 226.886719 C 149.605469 226.464844 149.640625 226.042969 149.71875 225.628906 C 149.796875 225.214844 149.914062 224.808594 150.070312 224.417969 L 175.800781 160.089844 C 175.957031 159.699219 176.152344 159.324219 176.382812 158.972656 C 176.613281 158.617188 176.875 158.289062 177.171875 157.988281 C 177.464844 157.683594 177.789062 157.414062 178.136719 157.175781 C 178.484375 156.9375 178.855469 156.734375 179.242188 156.566406 C 179.632812 156.402344 180.03125 156.273438 180.445312 156.1875 C 180.859375 156.101562 181.277344 156.054688 181.699219 156.050781 C 182.121094 156.042969 182.542969 156.082031 182.957031 156.160156 C 183.371094 156.234375 183.777344 156.351562 184.167969 156.511719 C 184.558594 156.667969 184.933594 156.863281 185.289062 157.09375 C 185.640625 157.324219 185.96875 157.585938 186.273438 157.878906 C 186.574219 158.175781 186.84375 158.496094 187.085938 158.847656 C 187.324219 159.195312 187.527344 159.5625 187.691406 159.953125 C 187.859375 160.339844 187.984375 160.742188 188.074219 161.15625 C 188.160156 161.566406 188.207031 161.984375 188.210938 162.410156 C 188.21875 162.832031 188.179688 163.25 188.101562 163.664062 C 188.027344 164.082031 187.910156 164.484375 187.75 164.878906 L 162.019531 229.203125 C 161.863281 229.597656 161.671875 229.96875 161.4375 230.324219 C 161.207031 230.679688 160.945312 231.007812 160.648438 231.308594 C 160.355469 231.609375 160.03125 231.878906 159.683594 232.121094 C 159.335938 232.359375 158.964844 232.5625 158.578125 232.726562 C 158.1875 232.894531 157.789062 233.019531 157.375 233.105469 C 156.960938 233.195312 156.542969 233.238281 156.121094 233.242188 C 155.699219 233.25 155.277344 233.210938 154.863281 233.132812 C 154.449219 233.054688 154.042969 232.9375 153.652344 232.78125 Z M 153.652344 232.78125 " fill-opacity="1" fill-rule="nonzero"/><path fill="#0a5078" d="M 78.851562 78.851562 L 258.96875 78.851562 C 259.390625 78.851562 259.808594 78.894531 260.222656 78.976562 C 260.636719 79.058594 261.039062 79.179688 261.429688 79.34375 C 261.820312 79.503906 262.191406 79.703125 262.542969 79.9375 C 262.894531 80.171875 263.21875 80.4375 263.515625 80.738281 C 263.816406 81.035156 264.082031 81.359375 264.316406 81.710938 C 264.550781 82.0625 264.75 82.433594 264.910156 82.824219 C 265.074219 83.214844 265.195312 83.617188 265.277344 84.03125 C 265.359375 84.445312 265.402344 84.863281 265.402344 85.285156 L 265.402344 117.449219 L 72.421875 117.449219 L 72.421875 85.285156 C 72.421875 84.863281 72.460938 84.445312 72.542969 84.03125 C 72.625 83.617188 72.75 83.214844 72.910156 82.824219 C 73.070312 82.433594 73.269531 82.0625 73.503906 81.710938 C 73.738281 81.359375 74.003906 81.035156 74.304688 80.738281 C 74.601562 80.4375 74.929688 80.171875 75.277344 79.9375 C 75.628906 79.703125 76 79.503906 76.390625 79.34375 C 76.78125 79.179688 77.183594 79.058594 77.597656 78.976562 C 78.011719 78.894531 78.429688 78.851562 78.851562 78.851562 Z M 78.851562 78.851562 " fill-opacity="1" fill-rule="nonzero"/><path fill="#00325a" d="M 252.535156 104.582031 C 252.535156 105.007812 252.496094 105.425781 252.410156 105.839844 C 252.328125 106.253906 252.207031 106.65625 252.046875 107.046875 C 251.882812 107.4375 251.6875 107.804688 251.453125 108.15625 C 251.21875 108.507812 250.949219 108.832031 250.652344 109.132812 C 250.351562 109.429688 250.027344 109.699219 249.675781 109.933594 C 249.324219 110.167969 248.953125 110.363281 248.566406 110.527344 C 248.175781 110.6875 247.773438 110.808594 247.359375 110.894531 C 246.945312 110.976562 246.523438 111.015625 246.101562 111.015625 C 245.679688 111.015625 245.261719 110.976562 244.847656 110.894531 C 244.433594 110.808594 244.03125 110.6875 243.640625 110.527344 C 243.25 110.363281 242.878906 110.167969 242.527344 109.933594 C 242.179688 109.699219 241.851562 109.429688 241.554688 109.132812 C 241.253906 108.832031 240.988281 108.507812 240.753906 108.15625 C 240.519531 107.804688 240.320312 107.4375 240.160156 107.046875 C 240 106.65625 239.875 106.253906 239.792969 105.839844 C 239.710938 105.425781 239.671875 105.007812 239.671875 104.582031 C 239.671875 104.160156 239.710938 103.742188 239.792969 103.328125 C 239.875 102.914062 240 102.511719 240.160156 102.121094 C 240.320312 101.730469 240.519531 101.359375 240.753906 101.011719 C 240.988281 100.660156 241.253906 100.332031 241.554688 100.035156 C 241.851562 99.738281 242.179688 99.46875 242.527344 99.234375 C 242.878906 99 243.25 98.800781 243.640625 98.640625 C 244.03125 98.480469 244.433594 98.355469 244.847656 98.273438 C 245.261719 98.191406 245.679688 98.152344 246.101562 98.152344 C 246.523438 98.152344 246.945312 98.191406 247.359375 98.273438 C 247.773438 98.355469 248.175781 98.480469 248.566406 98.640625 C 248.953125 98.800781 249.324219 99 249.675781 99.234375 C 250.027344 99.46875 250.351562 99.738281 250.652344 100.035156 C 250.949219 100.332031 251.21875 100.660156 251.453125 101.011719 C 251.6875 101.359375 251.882812 101.730469 252.046875 102.121094 C 252.207031 102.511719 252.328125 102.914062 252.410156 103.328125 C 252.496094 103.742188 252.535156 104.160156 252.535156 104.582031 Z M 252.535156 104.582031 " fill-opacity="1" fill-rule="nonzero"/><path fill="#00325a" d="M 233.238281 104.582031 C 233.238281 105.007812 233.195312 105.425781 233.113281 105.839844 C 233.03125 106.253906 232.910156 106.65625 232.746094 107.046875 C 232.585938 107.4375 232.386719 107.804688 232.152344 108.15625 C 231.917969 108.507812 231.652344 108.832031 231.351562 109.132812 C 231.054688 109.429688 230.730469 109.699219 230.378906 109.933594 C 230.027344 110.167969 229.65625 110.363281 229.265625 110.527344 C 228.875 110.6875 228.472656 110.808594 228.058594 110.894531 C 227.644531 110.976562 227.226562 111.015625 226.804688 111.015625 C 226.382812 111.015625 225.964844 110.976562 225.550781 110.894531 C 225.136719 110.808594 224.734375 110.6875 224.34375 110.527344 C 223.953125 110.363281 223.582031 110.167969 223.230469 109.933594 C 222.878906 109.699219 222.554688 109.429688 222.257812 109.132812 C 221.957031 108.832031 221.691406 108.507812 221.457031 108.15625 C 221.222656 107.804688 221.023438 107.4375 220.863281 107.046875 C 220.699219 106.65625 220.578125 106.253906 220.496094 105.839844 C 220.414062 105.425781 220.371094 105.007812 220.371094 104.582031 C 220.371094 104.160156 220.414062 103.742188 220.496094 103.328125 C 220.578125 102.914062 220.699219 102.511719 220.863281 102.121094 C 221.023438 101.730469 221.222656 101.359375 221.457031 101.011719 C 221.691406 100.660156 221.957031 100.332031 222.257812 100.035156 C 222.554688 99.738281 222.878906 99.46875 223.230469 99.234375 C 223.582031 99 223.953125 98.800781 224.34375 98.640625 C 224.734375 98.480469 225.136719 98.355469 225.550781 98.273438 C 225.964844 98.191406 226.382812 98.152344 226.804688 98.152344 C 227.226562 98.152344 227.644531 98.191406 228.058594 98.273438 C 228.472656 98.355469 228.875 98.480469 229.265625 98.640625 C 229.65625 98.800781 230.027344 99 230.378906 99.234375 C 230.730469 99.46875 231.054688 99.738281 231.351562 100.035156 C 231.652344 100.332031 231.917969 100.660156 232.152344 101.011719 C 232.386719 101.359375 232.585938 101.730469 232.746094 102.121094 C 232.910156 102.511719 233.03125 102.914062 233.113281 103.328125 C 233.195312 103.742188 233.238281 104.160156 233.238281 104.582031 Z M 233.238281 104.582031 " fill-opacity="1" fill-rule="nonzero"/><path fill="#00325a" d="M 213.9375 104.582031 C 213.9375 105.007812 213.898438 105.425781 213.816406 105.839844 C 213.734375 106.253906 213.613281 106.65625 213.449219 107.046875 C 213.289062 107.4375 213.089844 107.804688 212.855469 108.15625 C 212.621094 108.507812 212.355469 108.832031 212.054688 109.132812 C 211.757812 109.429688 211.433594 109.699219 211.082031 109.933594 C 210.730469 110.167969 210.359375 110.363281 209.96875 110.527344 C 209.578125 110.6875 209.175781 110.808594 208.761719 110.894531 C 208.347656 110.976562 207.929688 111.015625 207.507812 111.015625 C 207.085938 111.015625 206.664062 110.976562 206.25 110.894531 C 205.835938 110.808594 205.433594 110.6875 205.046875 110.527344 C 204.65625 110.363281 204.285156 110.167969 203.933594 109.933594 C 203.582031 109.699219 203.257812 109.429688 202.957031 109.132812 C 202.660156 108.832031 202.394531 108.507812 202.15625 108.15625 C 201.921875 107.804688 201.726562 107.4375 201.5625 107.046875 C 201.402344 106.65625 201.28125 106.253906 201.199219 105.839844 C 201.113281 105.425781 201.074219 105.007812 201.074219 104.582031 C 201.074219 104.160156 201.113281 103.742188 201.199219 103.328125 C 201.28125 102.914062 201.402344 102.511719 201.5625 102.121094 C 201.726562 101.730469 201.921875 101.359375 202.15625 101.011719 C 202.394531 100.660156 202.660156 100.332031 202.957031 100.035156 C 203.257812 99.738281 203.582031 99.46875 203.933594 99.234375 C 204.285156 99 204.65625 98.800781 205.046875 98.640625 C 205.433594 98.480469 205.835938 98.355469 206.25 98.273438 C 206.664062 98.191406 207.085938 98.152344 207.507812 98.152344 C 207.929688 98.152344 208.347656 98.191406 208.761719 98.273438 C 209.175781 98.355469 209.578125 98.480469 209.96875 98.640625 C 210.359375 98.800781 210.730469 99 211.082031 99.234375 C 211.433594 99.46875 211.757812 99.738281 212.054688 100.035156 C 212.355469 100.332031 212.621094 100.660156 212.855469 101.011719 C 213.089844 101.359375 213.289062 101.730469 213.449219 102.121094 C 213.613281 102.511719 213.734375 102.914062 213.816406 103.328125 C 213.898438 103.742188 213.9375 104.160156 213.9375 104.582031 Z M 213.9375 104.582031 " fill-opacity="1" fill-rule="nonzero"/><path fill="#00325a" d="M 91.71875 98.152344 L 143.179688 98.152344 C 143.601562 98.152344 144.019531 98.191406 144.433594 98.273438 C 144.847656 98.355469 145.25 98.480469 145.640625 98.640625 C 146.03125 98.800781 146.402344 99 146.753906 99.234375 C 147.105469 99.46875 147.429688 99.738281 147.726562 100.035156 C 148.027344 100.332031 148.292969 100.660156 148.527344 101.011719 C 148.761719 101.359375 148.960938 101.730469 149.121094 102.121094 C 149.285156 102.511719 149.40625 102.914062 149.488281 103.328125 C 149.570312 103.742188 149.613281 104.160156 149.613281 104.582031 C 149.613281 105.007812 149.570312 105.425781 149.488281 105.839844 C 149.40625 106.253906 149.285156 106.65625 149.121094 107.046875 C 148.960938 107.4375 148.761719 107.804688 148.527344 108.15625 C 148.292969 108.507812 148.027344 108.832031 147.726562 109.132812 C 147.429688 109.429688 147.105469 109.699219 146.753906 109.933594 C 146.402344 110.167969 146.03125 110.363281 145.640625 110.527344 C 145.25 110.6875 144.847656 110.808594 144.433594 110.894531 C 144.019531 110.976562 143.601562 111.015625 143.179688 111.015625 L 91.71875 111.015625 C 91.296875 111.015625 90.878906 110.976562 90.464844 110.894531 C 90.050781 110.808594 89.648438 110.6875 89.257812 110.527344 C 88.867188 110.363281 88.496094 110.167969 88.144531 109.933594 C 87.792969 109.699219 87.46875 109.429688 87.167969 109.132812 C 86.871094 108.832031 86.605469 108.507812 86.371094 108.15625 C 86.136719 107.804688 85.9375 107.4375 85.773438 107.046875 C 85.613281 106.65625 85.492188 106.253906 85.410156 105.839844 C 85.328125 105.425781 85.285156 105.007812 85.285156 104.582031 C 85.285156 104.160156 85.328125 103.742188 85.410156 103.328125 C 85.492188 102.914062 85.613281 102.511719 85.773438 102.121094 C 85.9375 101.730469 86.136719 101.359375 86.371094 101.011719 C 86.605469 100.660156 86.871094 100.332031 87.167969 100.035156 C 87.46875 99.738281 87.792969 99.46875 88.144531 99.234375 C 88.496094 99 88.867188 98.800781 89.257812 98.640625 C 89.648438 98.480469 90.050781 98.355469 90.464844 98.273438 C 90.878906 98.191406 91.296875 98.152344 91.71875 98.152344 Z M 91.71875 98.152344 " fill-opacity="1" fill-rule="nonzero"/><path fill="#c80a50" d="M 252.535156 98.152344 C 252.535156 98.574219 252.496094 98.992188 252.410156 99.40625 C 252.328125 99.820312 252.207031 100.222656 252.046875 100.613281 C 251.882812 101.003906 251.6875 101.375 251.453125 101.726562 C 251.21875 102.074219 250.949219 102.402344 250.652344 102.699219 C 250.351562 103 250.027344 103.265625 249.675781 103.5 C 249.324219 103.734375 248.953125 103.933594 248.566406 104.09375 C 248.175781 104.253906 247.773438 104.378906 247.359375 104.460938 C 246.945312 104.542969 246.523438 104.582031 246.101562 104.582031 C 245.679688 104.582031 245.261719 104.542969 244.847656 104.460938 C 244.433594 104.378906 244.03125 104.253906 243.640625 104.09375 C 243.25 103.933594 242.878906 103.734375 242.527344 103.5 C 242.179688 103.265625 241.851562 103 241.554688 102.699219 C 241.253906 102.402344 240.988281 102.074219 240.753906 101.726562 C 240.519531 101.375 240.320312 101.003906 240.160156 100.613281 C 240 100.222656 239.875 99.820312 239.792969 99.40625 C 239.710938 98.992188 239.671875 98.574219 239.671875 98.152344 C 239.671875 97.730469 239.710938 97.308594 239.792969 96.894531 C 239.875 96.480469 240 96.078125 240.160156 95.6875 C 240.320312 95.300781 240.519531 94.929688 240.753906 94.578125 C 240.988281 94.226562 241.253906 93.902344 241.554688 93.601562 C 241.851562 93.304688 242.179688 93.035156 242.527344 92.800781 C 242.878906 92.566406 243.25 92.371094 243.640625 92.207031 C 244.03125 92.046875 244.433594 91.925781 244.847656 91.84375 C 245.261719 91.757812 245.679688 91.71875 246.101562 91.71875 C 246.523438 91.71875 246.945312 91.757812 247.359375 91.84375 C 247.773438 91.925781 248.175781 92.046875 248.566406 92.207031 C 248.953125 92.371094 249.324219 92.566406 249.675781 92.800781 C 250.027344 93.035156 250.351562 93.304688 250.652344 93.601562 C 250.949219 93.902344 251.21875 94.226562 251.453125 94.578125 C 251.6875 94.929688 251.882812 95.300781 252.046875 95.6875 C 252.207031 96.078125 252.328125 96.480469 252.410156 96.894531 C 252.496094 97.308594 252.535156 97.730469 252.535156 98.152344 Z M 252.535156 98.152344 " fill-opacity="1" fill-rule="nonzero"/><path fill="#01a0c8" d="M 233.238281 98.152344 C 233.238281 98.574219 233.195312 98.992188 233.113281 99.40625 C 233.03125 99.820312 232.910156 100.222656 232.746094 100.613281 C 232.585938 101.003906 232.386719 101.375 232.152344 101.726562 C 231.917969 102.074219 231.652344 102.402344 231.351562 102.699219 C 231.054688 103 230.730469 103.265625 230.378906 103.5 C 230.027344 103.734375 229.65625 103.933594 229.265625 104.09375 C 228.875 104.253906 228.472656 104.378906 228.058594 104.460938 C 227.644531 104.542969 227.226562 104.582031 226.804688 104.582031 C 226.382812 104.582031 225.964844 104.542969 225.550781 104.460938 C 225.136719 104.378906 224.734375 104.253906 224.34375 104.09375 C 223.953125 103.933594 223.582031 103.734375 223.230469 103.5 C 222.878906 103.265625 222.554688 103 222.257812 102.699219 C 221.957031 102.402344 221.691406 102.074219 221.457031 101.726562 C 221.222656 101.375 221.023438 101.003906 220.863281 100.613281 C 220.699219 100.222656 220.578125 99.820312 220.496094 99.40625 C 220.414062 98.992188 220.371094 98.574219 220.371094 98.152344 C 220.371094 97.730469 220.414062 97.308594 220.496094 96.894531 C 220.578125 96.480469 220.699219 96.078125 220.863281 95.6875 C 221.023438 95.300781 221.222656 94.929688 221.457031 94.578125 C 221.691406 94.226562 221.957031 93.902344 222.257812 93.601562 C 222.554688 93.304688 222.878906 93.035156 223.230469 92.800781 C 223.582031 92.566406 223.953125 92.371094 224.34375 92.207031 C 224.734375 92.046875 225.136719 91.925781 225.550781 91.84375 C 225.964844 91.757812 226.382812 91.71875 226.804688 91.71875 C 227.226562 91.71875 227.644531 91.757812 228.058594 91.84375 C 228.472656 91.925781 228.875 92.046875 229.265625 92.207031 C 229.65625 92.371094 230.027344 92.566406 230.378906 92.800781 C 230.730469 93.035156 231.054688 93.304688 231.351562 93.601562 C 231.652344 93.902344 231.917969 94.226562 232.152344 94.578125 C 232.386719 94.929688 232.585938 95.300781 232.746094 95.6875 C 232.910156 96.078125 233.03125 96.480469 233.113281 96.894531 C 233.195312 97.308594 233.238281 97.730469 233.238281 98.152344 Z M 233.238281 98.152344 " fill-opacity="1" fill-rule="nonzero"/><path fill="#fab400" d="M 213.9375 98.152344 C 213.9375 98.574219 213.898438 98.992188 213.816406 99.40625 C 213.734375 99.820312 213.613281 100.222656 213.449219 100.613281 C 213.289062 101.003906 213.089844 101.375 212.855469 101.726562 C 212.621094 102.074219 212.355469 102.402344 212.054688 102.699219 C 211.757812 103 211.433594 103.265625 211.082031 103.5 C 210.730469 103.734375 210.359375 103.933594 209.96875 104.09375 C 209.578125 104.253906 209.175781 104.378906 208.761719 104.460938 C 208.347656 104.542969 207.929688 104.582031 207.507812 104.582031 C 207.085938 104.582031 206.664062 104.542969 206.25 104.460938 C 205.835938 104.378906 205.433594 104.253906 205.046875 104.09375 C 204.65625 103.933594 204.285156 103.734375 203.933594 103.5 C 203.582031 103.265625 203.257812 103 202.957031 102.699219 C 202.660156 102.402344 202.394531 102.074219 202.15625 101.726562 C 201.921875 101.375 201.726562 101.003906 201.5625 100.613281 C 201.402344 100.222656 201.28125 99.820312 201.199219 99.40625 C 201.113281 98.992188 201.074219 98.574219 201.074219 98.152344 C 201.074219 97.730469 201.113281 97.308594 201.199219 96.894531 C 201.28125 96.480469 201.402344 96.078125 201.5625 95.6875 C 201.726562 95.300781 201.921875 94.929688 202.15625 94.578125 C 202.394531 94.226562 202.660156 93.902344 202.957031 93.601562 C 203.257812 93.304688 203.582031 93.035156 203.933594 92.800781 C 204.285156 92.566406 204.65625 92.371094 205.046875 92.207031 C 205.433594 92.046875 205.835938 91.925781 206.25 91.84375 C 206.664062 91.757812 207.085938 91.71875 207.507812 91.71875 C 207.929688 91.71875 208.347656 91.757812 208.761719 91.84375 C 209.175781 91.925781 209.578125 92.046875 209.96875 92.207031 C 210.359375 92.371094 210.730469 92.566406 211.082031 92.800781 C 211.433594 93.035156 211.757812 93.304688 212.054688 93.601562 C 212.355469 93.902344 212.621094 94.226562 212.855469 94.578125 C 213.089844 94.929688 213.289062 95.300781 213.449219 95.6875 C 213.613281 96.078125 213.734375 96.480469 213.816406 96.894531 C 213.898438 97.308594 213.9375 97.730469 213.9375 98.152344 Z M 213.9375 98.152344 " fill-opacity="1" fill-rule="nonzero"/><path fill="#0a5078" d="M 130.3125 226.804688 C 129.335938 226.804688 128.410156 226.59375 127.527344 226.171875 C 126.648438 225.75 125.902344 225.15625 125.289062 224.390625 L 99.558594 192.230469 C 99.101562 191.660156 98.753906 191.027344 98.511719 190.339844 C 98.269531 189.648438 98.148438 188.9375 98.148438 188.207031 C 98.148438 187.476562 98.269531 186.769531 98.511719 186.078125 C 98.753906 185.390625 99.101562 184.757812 99.558594 184.1875 L 125.289062 152.023438 C 125.554688 151.695312 125.847656 151.394531 126.171875 151.121094 C 126.496094 150.851562 126.839844 150.613281 127.210938 150.410156 C 127.582031 150.207031 127.96875 150.039062 128.371094 149.914062 C 128.773438 149.785156 129.183594 149.699219 129.605469 149.652344 C 130.023438 149.605469 130.445312 149.601562 130.867188 149.636719 C 131.285156 149.671875 131.699219 149.75 132.105469 149.867188 C 132.511719 149.984375 132.902344 150.140625 133.277344 150.335938 C 133.652344 150.53125 134.003906 150.757812 134.332031 151.023438 C 134.664062 151.285156 134.964844 151.582031 135.234375 151.902344 C 135.507812 152.226562 135.746094 152.574219 135.949219 152.945312 C 136.152344 153.3125 136.320312 153.699219 136.445312 154.101562 C 136.574219 154.503906 136.660156 154.917969 136.707031 155.335938 C 136.753906 155.757812 136.761719 156.175781 136.722656 156.597656 C 136.6875 157.019531 136.609375 157.429688 136.492188 157.835938 C 136.375 158.242188 136.21875 158.632812 136.027344 159.007812 C 135.832031 159.382812 135.601562 159.734375 135.339844 160.066406 L 112.824219 188.207031 L 135.339844 216.351562 C 135.71875 216.824219 136.023438 217.339844 136.253906 217.902344 C 136.488281 218.460938 136.640625 219.042969 136.707031 219.644531 C 136.777344 220.246094 136.761719 220.84375 136.660156 221.441406 C 136.558594 222.039062 136.378906 222.613281 136.113281 223.160156 C 135.851562 223.703125 135.519531 224.203125 135.117188 224.65625 C 134.710938 225.109375 134.253906 225.496094 133.742188 225.816406 C 133.226562 226.140625 132.679688 226.386719 132.097656 226.554688 C 131.515625 226.722656 130.921875 226.804688 130.3125 226.804688 Z M 130.3125 226.804688 " fill-opacity="1" fill-rule="nonzero"/><path fill="#0a5078" d="M 207.507812 226.804688 C 206.902344 226.804688 206.308594 226.71875 205.726562 226.550781 C 205.144531 226.382812 204.597656 226.136719 204.082031 225.816406 C 203.570312 225.492188 203.113281 225.105469 202.710938 224.652344 C 202.304688 224.199219 201.972656 223.703125 201.710938 223.15625 C 201.449219 222.609375 201.269531 222.039062 201.167969 221.441406 C 201.066406 220.84375 201.050781 220.242188 201.121094 219.640625 C 201.1875 219.039062 201.339844 218.460938 201.570312 217.898438 C 201.804688 217.339844 202.109375 216.824219 202.488281 216.351562 L 225.003906 188.207031 L 202.488281 160.066406 C 202.226562 159.734375 201.996094 159.382812 201.800781 159.007812 C 201.609375 158.632812 201.453125 158.242188 201.335938 157.835938 C 201.214844 157.429688 201.140625 157.019531 201.101562 156.597656 C 201.066406 156.175781 201.074219 155.757812 201.121094 155.335938 C 201.164062 154.917969 201.253906 154.503906 201.378906 154.101562 C 201.507812 153.699219 201.675781 153.3125 201.878906 152.945312 C 202.082031 152.574219 202.320312 152.226562 202.589844 151.902344 C 202.863281 151.582031 203.164062 151.285156 203.492188 151.023438 C 203.824219 150.757812 204.175781 150.53125 204.550781 150.335938 C 204.925781 150.140625 205.316406 149.984375 205.722656 149.867188 C 206.128906 149.75 206.542969 149.671875 206.960938 149.636719 C 207.382812 149.601562 207.804688 149.605469 208.222656 149.652344 C 208.644531 149.699219 209.054688 149.785156 209.457031 149.914062 C 209.859375 150.039062 210.246094 150.207031 210.617188 150.410156 C 210.984375 150.613281 211.332031 150.851562 211.65625 151.121094 C 211.980469 151.394531 212.273438 151.695312 212.535156 152.023438 L 238.269531 184.1875 C 238.722656 184.757812 239.074219 185.390625 239.316406 186.078125 C 239.558594 186.769531 239.679688 187.476562 239.679688 188.207031 C 239.679688 188.9375 239.558594 189.648438 239.316406 190.339844 C 239.074219 191.027344 238.722656 191.660156 238.269531 192.230469 L 212.535156 224.390625 C 211.925781 225.15625 211.179688 225.75 210.296875 226.171875 C 209.414062 226.59375 208.484375 226.804688 207.507812 226.804688 Z M 207.507812 226.804688 " fill-opacity="1" fill-rule="nonzero"/><path fill="#0a5078" d="M 156.046875 226.804688 C 155.21875 226.804688 154.421875 226.652344 153.652344 226.347656 C 153.261719 226.191406 152.886719 225.996094 152.53125 225.765625 C 152.179688 225.535156 151.851562 225.273438 151.546875 224.980469 C 151.246094 224.683594 150.976562 224.363281 150.738281 224.015625 C 150.496094 223.664062 150.296875 223.296875 150.128906 222.910156 C 149.960938 222.519531 149.835938 222.121094 149.746094 221.707031 C 149.660156 221.292969 149.613281 220.875 149.609375 220.453125 C 149.605469 220.03125 149.640625 219.613281 149.71875 219.195312 C 149.796875 218.78125 149.914062 218.378906 150.070312 217.984375 L 175.800781 153.660156 C 175.957031 153.265625 176.152344 152.894531 176.382812 152.539062 C 176.613281 152.183594 176.875 151.855469 177.171875 151.554688 C 177.464844 151.253906 177.789062 150.980469 178.136719 150.742188 C 178.484375 150.503906 178.855469 150.300781 179.242188 150.136719 C 179.632812 149.96875 180.03125 149.84375 180.445312 149.753906 C 180.859375 149.667969 181.277344 149.621094 181.699219 149.617188 C 182.121094 149.613281 182.542969 149.648438 182.957031 149.726562 C 183.371094 149.804688 183.777344 149.921875 184.167969 150.078125 C 184.558594 150.234375 184.933594 150.429688 185.289062 150.660156 C 185.640625 150.890625 185.96875 151.152344 186.273438 151.449219 C 186.574219 151.742188 186.84375 152.066406 187.085938 152.414062 C 187.324219 152.761719 187.527344 153.128906 187.691406 153.519531 C 187.859375 153.90625 187.984375 154.308594 188.074219 154.722656 C 188.160156 155.136719 188.207031 155.554688 188.210938 155.976562 C 188.21875 156.398438 188.179688 156.816406 188.101562 157.234375 C 188.027344 157.648438 187.910156 158.050781 187.75 158.445312 L 162.019531 222.773438 C 161.78125 223.367188 161.460938 223.914062 161.054688 224.414062 C 160.652344 224.914062 160.183594 225.34375 159.652344 225.703125 C 159.117188 226.0625 158.546875 226.335938 157.929688 226.523438 C 157.316406 226.710938 156.6875 226.804688 156.046875 226.804688 Z M 156.046875 226.804688 " fill-opacity="1" fill-rule="nonzero"/><path fill="#f0f0f0" d="M 91.71875 91.71875 L 143.179688 91.71875 C 143.601562 91.71875 144.019531 91.757812 144.433594 91.84375 C 144.847656 91.925781 145.25 92.046875 145.640625 92.207031 C 146.03125 92.371094 146.402344 92.566406 146.753906 92.800781 C 147.105469 93.035156 147.429688 93.304688 147.726562 93.601562 C 148.027344 93.902344 148.292969 94.226562 148.527344 94.578125 C 148.761719 94.929688 148.960938 95.300781 149.121094 95.6875 C 149.285156 96.078125 149.40625 96.480469 149.488281 96.894531 C 149.570312 97.308594 149.613281 97.730469 149.613281 98.152344 C 149.613281 98.574219 149.570312 98.992188 149.488281 99.40625 C 149.40625 99.820312 149.285156 100.222656 149.121094 100.613281 C 148.960938 101.003906 148.761719 101.375 148.527344 101.726562 C 148.292969 102.074219 148.027344 102.402344 147.726562 102.699219 C 147.429688 103 147.105469 103.265625 146.753906 103.5 C 146.402344 103.734375 146.03125 103.933594 145.640625 104.09375 C 145.25 104.253906 144.847656 104.378906 144.433594 104.460938 C 144.019531 104.542969 143.601562 104.582031 143.179688 104.582031 L 91.71875 104.582031 C 91.296875 104.582031 90.878906 104.542969 90.464844 104.460938 C 90.050781 104.378906 89.648438 104.253906 89.257812 104.09375 C 88.867188 103.933594 88.496094 103.734375 88.144531 103.5 C 87.792969 103.265625 87.46875 103 87.167969 102.699219 C 86.871094 102.402344 86.605469 102.074219 86.371094 101.726562 C 86.136719 101.375 85.9375 101.003906 85.773438 100.613281 C 85.613281 100.222656 85.492188 99.820312 85.410156 99.40625 C 85.328125 98.992188 85.285156 98.574219 85.285156 98.152344 C 85.285156 97.730469 85.328125 97.308594 85.410156 96.894531 C 85.492188 96.480469 85.613281 96.078125 85.773438 95.6875 C 85.9375 95.300781 86.136719 94.929688 86.371094 94.578125 C 86.605469 94.226562 86.871094 93.902344 87.167969 93.601562 C 87.46875 93.304688 87.792969 93.035156 88.144531 92.800781 C 88.496094 92.566406 88.867188 92.371094 89.257812 92.207031 C 89.648438 92.046875 90.050781 91.925781 90.464844 91.84375 C 90.878906 91.757812 91.296875 91.71875 91.71875 91.71875 Z M 91.71875 91.71875 " fill-opacity="1" fill-rule="nonzero"/></svg>