<svg xmlns="http://www.w3.org/2000/svg" xmlns:xlink="http://www.w3.org/1999/xlink" width="350" zoomAndPan="magnify" viewBox="0 0 262.5 74.999997" height="100" preserveAspectRatio="xMidYMid meet" version="1.0"><defs><g/><clipPath id="2375402342"><path d="M 1 2.390625 L 261.210938 2.390625 L 261.210938 72.890625 L 1 72.890625 Z M 1 2.390625 " clip-rule="nonzero"/></clipPath><clipPath id="59a5114794"><path d="M 7.082031 8.941406 L 131.082031 8.941406 L 131.082031 67.574219 L 7.082031 67.574219 Z M 7.082031 8.941406 " clip-rule="nonzero"/></clipPath></defs><g clip-path="url(#2375402342)"><path stroke-linecap="butt" transform="matrix(0.750981, 0, 0, 0.74888, 1.000665, 2.389022)" fill="none" stroke-linejoin="miter" d="M -0.000885554 0.00214085 L 346.494037 0.00214085 L 346.494037 94.142774 L -0.000885554 94.142774 L -0.000885554 0.00214085 " stroke="#000000" stroke-width="2" stroke-opacity="1" stroke-miterlimit="4"/></g><g clip-path="url(#59a5114794)"><path fill="#000000" d="M 7.082031 8.941406 L 131.785156 8.941406 L 131.785156 68.175781 L 7.082031 68.175781 Z M 7.082031 8.941406 " fill-opacity="1" fill-rule="nonzero"/></g><g fill="#ff1616" fill-opacity="1"><g transform="translate(21.019072, 44.341443)"><g><path d="M 1.40625 0 L 13.789062 0 L 15.195312 -3.941406 L 6.472656 -3.941406 L 6.472656 -19.699219 L 1.40625 -19.699219 Z M 1.40625 0 "/></g></g></g><g fill="#ffffff" fill-opacity="1"><g transform="translate(38.913601, 44.341443)"><g><path d="M 1.40625 -15.757812 L 1.40625 0 L 14.605469 0 L 16.011719 -3.941406 L 6.472656 -3.941406 L 6.472656 -7.878906 L 10.664062 -7.878906 L 12.070312 -11.820312 L 6.472656 -11.820312 L 6.472656 -15.757812 L 13.761719 -15.757812 L 15.167969 -19.699219 L 1.40625 -19.699219 L -1.714844 -15.757812 Z M 1.40625 -15.757812 "/></g></g></g><g fill="#ffffff" fill-opacity="1"><g transform="translate(57.624829, 44.341443)"><g><path d="M 4.585938 0 L 9.0625 -12.578125 L 11.199219 -6.808594 L 8.078125 -2.925781 L 12.636719 -2.925781 L 14.4375 1.96875 L 20.429688 4.222656 L 11.621094 -19.699219 L 6.445312 -19.699219 L 1.941406 -15.757812 L 5.066406 -15.757812 L -0.5625 0 Z M 4.585938 0 "/></g></g></g><g fill="#ffffff" fill-opacity="1"><g transform="translate(77.883584, 44.341443)"><g><path d="M 12.605469 1.96875 L 19.078125 4.222656 L 13.761719 -8.160156 C 15.730469 -9.03125 17.25 -10.777344 17.25 -13.394531 C 17.25 -17.558594 15.363281 -19.699219 10.328125 -19.699219 L 1.40625 -19.699219 L -1.714844 -15.757812 L 1.40625 -15.757812 L 1.40625 0 L 6.472656 0 L 6.472656 -7.457031 L 8.582031 -7.457031 Z M 6.472656 -11.398438 L 6.472656 -15.757812 L 8.949219 -15.757812 C 10.972656 -15.757812 12.042969 -15.363281 12.042969 -13.589844 C 12.042969 -11.789062 10.863281 -11.398438 8.808594 -11.398438 Z M 6.472656 -11.398438 "/></g></g></g><g fill="#85888f" fill-opacity="1"><g transform="translate(97.964374, 44.341443)"><g><path d="M 12.71875 1.96875 L 17.785156 4.222656 L 17.785156 -19.699219 L 12.71875 -19.699219 L 12.71875 -7.738281 L 6.472656 -19.699219 L 1.40625 -19.699219 L -1.714844 -15.757812 L 1.40625 -15.757812 L 1.40625 0 L 6.472656 0 L 6.472656 -9.960938 Z M 12.71875 1.96875 "/></g></g></g><g fill="#ff1616" fill-opacity="1"><g transform="translate(134.487987, 41.952052)"><g><path d="M 2.363281 -10.402344 L 5.585938 -0.0703125 L 8.070312 -0.0703125 L 9.132812 -3.925781 L 10.300781 -0.0703125 L 12.800781 -0.0703125 L 16.023438 -10.402344 L 13.726562 -10.402344 L 11.5 -3.632812 L 10.230469 -7.816406 L 10.949219 -10.402344 L 8.738281 -10.402344 L 6.871094 -3.648438 L 4.644531 -10.402344 Z M 2.363281 -10.402344 "/></g></g></g><g fill="#ff1616" fill-opacity="1"><g transform="translate(152.871568, 41.952052)"><g><path d="M 2.363281 -10.402344 L 2.363281 -0.0703125 L 10.402344 -0.0703125 L 10.402344 -2.074219 L 4.351562 -2.074219 L 4.351562 -4.234375 L 10.402344 -4.234375 L 10.402344 -6.238281 L 4.351562 -6.238281 L 4.351562 -8.398438 L 10.402344 -8.398438 L 10.402344 -10.402344 Z M 2.363281 -10.402344 "/></g></g></g><g fill="#ff1616" fill-opacity="1"><g transform="translate(165.635562, 41.952052)"><g><path d="M 2.363281 -10.402344 L 2.363281 -0.0703125 L 7.453125 -0.0703125 C 7.453125 -0.0703125 10.574219 -0.0859375 10.574219 -3.238281 C 10.574219 -4.457031 10.027344 -5.105469 9.511719 -5.5 C 9.921875 -5.859375 10.332031 -6.425781 10.332031 -7.402344 C 10.332031 -10.402344 7.285156 -10.402344 7.285156 -10.402344 Z M 4.351562 -8.398438 L 7.367188 -8.398438 C 7.367188 -8.398438 8.3125 -8.378906 8.3125 -7.402344 C 8.3125 -6.425781 7.367188 -6.410156 7.367188 -6.410156 L 4.351562 -6.410156 Z M 4.351562 -4.421875 L 7.402344 -4.421875 C 7.402344 -4.421875 8.550781 -4.371094 8.550781 -3.238281 C 8.550781 -2.125 7.402344 -2.074219 7.402344 -2.074219 L 4.351562 -2.074219 Z M 4.351562 -4.421875 "/></g></g></g><g fill="#000000" fill-opacity="1"><g transform="translate(178.5622, 41.952052)"><g><path d="M 2.363281 -10.402344 L 5.585938 -0.0703125 L 8.070312 -0.0703125 L 9.132812 -3.925781 L 10.300781 -0.0703125 L 12.800781 -0.0703125 L 16.023438 -10.402344 L 13.726562 -10.402344 L 11.5 -3.632812 L 10.230469 -7.816406 L 10.949219 -10.402344 L 8.738281 -10.402344 L 6.871094 -3.648438 L 4.644531 -10.402344 Z M 2.363281 -10.402344 "/></g></g></g><g fill="#000000" fill-opacity="1"><g transform="translate(196.945781, 41.952052)"><g><path d="M 4.351562 -0.0703125 L 4.351562 -10.402344 L 2.363281 -10.402344 L 2.363281 -0.0703125 Z M 4.351562 -0.0703125 "/></g></g></g><g fill="#000000" fill-opacity="1"><g transform="translate(203.661871, 41.952052)"><g><path d="M 7.644531 -0.0703125 L 7.644531 -8.398438 L 10.917969 -8.398438 L 10.917969 -10.402344 L 2.363281 -10.402344 L 2.363281 -8.398438 L 5.636719 -8.398438 L 5.636719 -0.0703125 Z M 7.644531 -0.0703125 "/></g></g></g><g fill="#000000" fill-opacity="1"><g transform="translate(216.939853, 41.952052)"><g><path d="M 4.351562 -0.0703125 L 4.351562 -4.234375 L 9.082031 -4.234375 L 9.082031 -0.0703125 L 11.089844 -0.0703125 L 11.089844 -10.402344 L 9.082031 -10.402344 L 9.082031 -6.238281 L 4.351562 -6.238281 L 4.351562 -10.402344 L 2.363281 -10.402344 L 2.363281 -0.0703125 Z M 4.351562 -0.0703125 "/></g></g></g><g fill="#ffffff" fill-opacity="1"><g transform="translate(230.382506, 41.952052)"><g><path d="M 2.363281 -10.402344 L 5.878906 -3.753906 L 5.878906 -0.0703125 L 7.882812 -0.0703125 L 7.882812 -3.753906 L 11.414062 -10.402344 L 9.324219 -10.402344 L 6.890625 -6.101562 L 4.4375 -10.402344 Z M 2.363281 -10.402344 "/></g></g></g><g fill="#ffffff" fill-opacity="1"><g transform="translate(244.157334, 41.952052)"><g><path d="M 5.585938 -10.402344 L 2.363281 -0.0703125 L 4.644531 -0.0703125 L 5.328125 -2.226562 L 9.304688 -2.226562 L 9.992188 -0.0703125 L 12.289062 -0.0703125 L 9.066406 -10.402344 Z M 5.980469 -4.234375 L 7.316406 -8.449219 L 8.671875 -4.234375 Z M 5.980469 -4.234375 "/></g></g></g></svg>