<svg xmlns="http://www.w3.org/2000/svg" xmlns:xlink="http://www.w3.org/1999/xlink" width="2880" zoomAndPan="magnify" viewBox="0 0 2160 1439.999935" height="1920" preserveAspectRatio="xMidYMid meet" version="1.0"><defs><clipPath id="a0fe2fdd25"><path d="M 580 485 L 1568 485 L 1568 1308.75 L 580 1308.75 Z M 580 485 " clip-rule="nonzero"/></clipPath><clipPath id="72dd09b9f6"><path d="M 1605 308 L 1643.214844 308 L 1643.214844 347 L 1605 347 Z M 1605 308 " clip-rule="nonzero"/></clipPath><clipPath id="3f6f87801b"><path d="M 516.714844 308 L 555 308 L 555 347 L 516.714844 347 Z M 516.714844 308 " clip-rule="nonzero"/></clipPath></defs><rect x="-216" width="2592" fill="#ffffff" y="-143.999994" height="1727.999922" fill-opacity="1"/><rect x="-216" width="2592" fill="#ffffff" y="-143.999994" height="1727.999922" fill-opacity="1"/><rect x="-216" width="2592" fill="#3b3841" y="-143.999994" height="1727.999922" fill-opacity="1"/><g clip-path="url(#a0fe2fdd25)"><path fill="#d7deed" d="M 985.046875 485.828125 L 580.054688 485.828125 L 580.054688 1240.382812 C 580.054688 1278.136719 610.632812 1308.75 648.398438 1308.75 L 1498.878906 1308.75 C 1536.621094 1308.75 1567.222656 1278.136719 1567.222656 1240.382812 L 1567.222656 485.828125 Z M 985.046875 485.828125 " fill-opacity="1" fill-rule="nonzero"/></g><path fill="#07cc66" d="M 1421.675781 144 C 1453.113281 144 1478.628906 169.496094 1478.628906 200.972656 C 1478.628906 232.445312 1453.113281 257.941406 1421.675781 257.941406 C 1390.214844 257.941406 1364.726562 232.445312 1364.726562 200.972656 C 1364.726562 169.496094 1390.214844 144 1421.675781 144 Z M 1421.675781 144 " fill-opacity="1" fill-rule="nonzero"/><path fill="#07cc66" d="M 719.269531 194.640625 C 740.230469 194.640625 757.238281 211.65625 757.238281 232.621094 C 757.238281 253.585938 740.230469 270.601562 719.269531 270.601562 C 698.289062 270.601562 681.304688 253.585938 681.304688 232.621094 C 681.304688 211.65625 698.289062 194.640625 719.269531 194.640625 Z M 719.269531 194.640625 " fill-opacity="1" fill-rule="nonzero"/><path fill="#94d4ff" d="M 681.304688 589.644531 L 1465.972656 589.644531 L 1465.972656 652.945312 L 681.304688 652.945312 Z M 681.304688 589.644531 " fill-opacity="1" fill-rule="nonzero"/><path fill="#bce4ff" d="M 681.304688 650.414062 L 1465.972656 650.414062 L 1465.972656 1207.46875 L 681.304688 1207.46875 Z M 681.304688 650.414062 " fill-opacity="1" fill-rule="nonzero"/><g clip-path="url(#72dd09b9f6)"><path fill="#3256c1" d="M 1624.171875 308.585938 C 1634.652344 308.585938 1643.15625 317.09375 1643.15625 327.574219 C 1643.15625 338.058594 1634.652344 346.566406 1624.171875 346.566406 C 1613.667969 346.566406 1605.1875 338.058594 1605.1875 327.574219 C 1605.1875 317.09375 1613.667969 308.585938 1624.171875 308.585938 Z M 1624.171875 308.585938 " fill-opacity="1" fill-rule="nonzero"/></g><path fill="#3256c1" d="M 1244.492188 207.300781 C 1254.972656 207.300781 1263.476562 215.808594 1263.476562 226.292969 C 1263.476562 236.773438 1254.972656 245.28125 1244.492188 245.28125 C 1233.988281 245.28125 1225.511719 236.773438 1225.511719 226.292969 C 1225.511719 215.808594 1233.988281 207.300781 1244.492188 207.300781 Z M 1244.492188 207.300781 " fill-opacity="1" fill-rule="nonzero"/><path fill="#3256c1" d="M 1016.6875 257.941406 C 1027.164062 257.941406 1035.671875 266.449219 1035.671875 276.933594 C 1035.671875 287.417969 1027.164062 295.925781 1016.6875 295.925781 C 1006.183594 295.925781 997.703125 287.417969 997.703125 276.933594 C 997.703125 266.449219 1006.183594 257.941406 1016.6875 257.941406 Z M 1016.6875 257.941406 " fill-opacity="1" fill-rule="nonzero"/><path fill="#3256c1" d="M 890.125 181.980469 C 900.605469 181.980469 909.109375 190.488281 909.109375 200.972656 C 909.109375 211.453125 900.605469 219.960938 890.125 219.960938 C 879.621094 219.960938 871.144531 211.453125 871.144531 200.972656 C 871.144531 190.488281 879.621094 181.980469 890.125 181.980469 Z M 890.125 181.980469 " fill-opacity="1" fill-rule="nonzero"/><path fill="#4a78ff" d="M 1367.15625 964.792969 C 1361.382812 967.703125 1354.828125 968.160156 1354.828125 961.605469 L 1354.828125 938.308594 L 1366.21875 938.308594 L 1366.21875 925.421875 L 1354.828125 925.421875 L 1354.828125 907.671875 L 1337.792969 907.671875 L 1337.792969 925.421875 L 1330.679688 925.421875 L 1330.679688 938.3125 L 1337.792969 938.3125 L 1337.792969 967.457031 C 1337.792969 977.28125 1343.566406 982.371094 1353.339844 982.371094 C 1356.371094 982.371094 1359.414062 981.9375 1362.425781 981.078125 C 1365.433594 980.242188 1368.121094 979.304688 1370.449219 978.316406 Z M 1367.15625 964.792969 " fill-opacity="1" fill-rule="nonzero"/><path fill="#4a78ff" d="M 1293.015625 924.355469 C 1284.738281 924.355469 1278.535156 927.898438 1274.285156 934.484375 L 1274.285156 925.421875 L 1259.503906 925.421875 L 1259.503906 1003.964844 L 1276.539062 1003.964844 L 1276.539062 972.265625 C 1282.257812 982.972656 1295.898438 984.441406 1304.507812 980.136719 C 1314.355469 975.199219 1318.988281 964.285156 1318.988281 953.195312 C 1318.988281 937.523438 1308.355469 924.355469 1293.015625 924.355469 Z M 1294.128906 966.769531 C 1287.269531 970.4375 1279.574219 965.605469 1276.539062 957.980469 L 1276.539062 946.511719 C 1279.574219 940.234375 1286.816406 937.015625 1293.597656 939.902344 C 1304.253906 944.4375 1304.230469 961.351562 1294.128906 966.769531 Z M 1294.128906 966.769531 " fill-opacity="1" fill-rule="nonzero"/><path fill="#4a78ff" d="M 1223.359375 925.421875 L 1240.367188 925.421875 L 1240.367188 981.300781 L 1223.359375 981.300781 Z M 1223.359375 925.421875 " fill-opacity="1" fill-rule="nonzero"/><path fill="#4a78ff" d="M 1223.359375 903.621094 L 1240.367188 903.621094 L 1240.367188 919.039062 L 1223.359375 919.039062 Z M 1223.359375 903.621094 " fill-opacity="1" fill-rule="nonzero"/><path fill="#4a78ff" d="M 1206.019531 924.585938 C 1199.894531 924.710938 1193.1875 928.457031 1188.988281 936.714844 L 1188.988281 925.421875 L 1173.34375 925.421875 L 1173.34375 981.304688 L 1190.375 981.304688 L 1190.375 947.777344 C 1193.769531 941.953125 1202.070312 940.128906 1208.777344 940.003906 L 1208.777344 924.6875 C 1208.09375 924.558594 1207.863281 924.585938 1206.019531 924.585938 Z M 1206.019531 924.585938 " fill-opacity="1" fill-rule="nonzero"/><path fill="#4a78ff" d="M 1137.726562 966.464844 C 1131.550781 970.035156 1123.222656 967.402344 1120.386719 959.324219 C 1118.691406 954.566406 1118.96875 947.195312 1122.996094 942.765625 C 1125.347656 940.15625 1128.308594 938.839844 1131.878906 938.839844 C 1136.132812 938.839844 1139.347656 940.613281 1141.546875 944.15625 L 1158.128906 939.167969 C 1155.949219 934.765625 1152.632812 931.195312 1148.257812 928.460938 C 1140.03125 923.34375 1127.425781 923.292969 1119.246094 926.714844 C 1103.582031 933.296875 1101.300781 957.328125 1103.988281 964.316406 C 1108.011719 974.800781 1118.183594 982.371094 1131.984375 982.371094 C 1138.4375 982.371094 1143.90625 980.976562 1148.40625 978.214844 C 1152.914062 975.457031 1156.179688 971.910156 1158.257812 967.582031 L 1141.648438 962.46875 C 1140.8125 964.085938 1139.5 965.425781 1137.726562 966.464844 Z M 1137.726562 966.464844 " fill-opacity="1" fill-rule="nonzero"/><path fill="#4a78ff" d="M 1078.09375 950.109375 C 1065.96875 945.398438 1058.25 946.179688 1058.25 940.867188 C 1058.25 939.21875 1058.90625 938.03125 1060.171875 937.296875 C 1063.515625 935.347656 1068.527344 936.230469 1072.09375 937.675781 C 1074.574219 938.664062 1077.414062 940.257812 1080.597656 942.460938 L 1087.179688 932.230469 C 1081.613281 927.34375 1075.03125 924.359375 1064.855469 924.359375 C 1052.832031 924.359375 1042.503906 931.375 1042.503906 943.296875 C 1042.503906 947.882812 1044.074219 950.765625 1047.085938 952.996094 C 1053.742188 957.90625 1066.449219 959.578125 1070.980469 962.1875 C 1072.5 963.097656 1073.257812 964.261719 1073.257812 965.757812 C 1073.257812 969.277344 1069.839844 970.339844 1066.347656 970.339844 C 1059.539062 970.339844 1052.707031 966.84375 1047.085938 963 L 1041.035156 973.429688 C 1055.640625 986.75 1089.636719 986.445312 1089.636719 964.265625 C 1089.636719 958.183594 1087.257812 953.703125 1078.09375 950.109375 Z M 1078.09375 950.109375 " fill-opacity="1" fill-rule="nonzero"/><path fill="#4a78ff" d="M 1024.964844 947.777344 C 1024.964844 931.800781 1014.636719 924.355469 998.488281 924.355469 C 989.78125 924.355469 981.882812 926.660156 974.339844 931.597656 L 979.324219 942.230469 C 984.84375 938.535156 990.183594 936.078125 996.765625 936.078125 C 1010.382812 936.078125 1007.550781 946.992188 1007.953125 948.308594 C 1002.257812 945.597656 992.488281 945.214844 985.703125 947.34375 C 980.441406 949.015625 975.757812 952.105469 973.226562 957.039062 C 970.871094 961.546875 970.949219 967.296875 972.949219 971.652344 C 977.910156 982.515625 991.398438 984.894531 1001.726562 979.808594 C 1005.167969 978.109375 1008.132812 975.652344 1010.613281 972.464844 L 1010.914062 975.023438 C 1011.902344 980.316406 1015.824219 982.140625 1021.242188 982.140625 C 1024.332031 982.140625 1026.480469 981.785156 1028.582031 981.304688 L 1028.582031 966.921875 C 1027.242188 966.792969 1026.304688 966.390625 1025.773438 965.707031 C 1024.457031 964.035156 1025.167969 960.640625 1024.964844 947.777344 Z M 1007.953125 962.566406 C 1007.953125 963.984375 1007.117188 965.324219 1005.5 966.617188 C 1001.777344 970.113281 993.980469 971.628906 989.855469 968.160156 C 988.3125 966.84375 987.527344 965.148438 987.527344 963.097656 C 987.527344 957.90625 992.996094 955.449219 998.257812 955.449219 C 1001.144531 955.449219 1004.867188 956.082031 1007.953125 957.246094 Z M 1007.953125 962.566406 " fill-opacity="1" fill-rule="nonzero"/><path fill="#4a78ff" d="M 934.21875 967.679688 L 921.996094 925.421875 L 904.453125 925.421875 L 924.222656 981.304688 L 942.726562 981.304688 L 962.417969 925.421875 L 946.574219 925.421875 Z M 934.21875 967.679688 " fill-opacity="1" fill-rule="nonzero"/><path fill="#4a78ff" d="M 891.46875 947.777344 C 891.46875 931.800781 881.140625 924.355469 864.964844 924.355469 C 856.257812 924.355469 848.386719 926.660156 840.820312 931.597656 L 845.832031 942.230469 C 851.324219 938.535156 856.691406 936.078125 863.269531 936.078125 C 876.886719 936.078125 874.054688 946.992188 874.433594 948.308594 C 870.8125 946.5625 865.902344 945.976562 861.878906 945.976562 C 853.121094 945.976562 843.730469 949.21875 839.707031 957.039062 C 837.375 961.546875 837.425781 967.296875 839.453125 971.652344 C 844.414062 982.515625 857.90625 984.894531 868.230469 979.808594 C 871.648438 978.109375 874.609375 975.652344 877.089844 972.464844 L 877.421875 975.023438 C 878.40625 980.316406 882.332031 982.140625 887.746094 982.140625 C 890.808594 982.140625 892.988281 981.785156 895.089844 981.304688 L 895.089844 966.921875 C 893.722656 966.792969 892.785156 966.390625 892.253906 965.707031 C 890.9375 964.035156 891.671875 960.640625 891.46875 947.777344 Z M 874.433594 962.566406 C 874.433594 963.984375 873.625 965.324219 872.003906 966.617188 C 868.28125 970.113281 860.488281 971.628906 856.359375 968.160156 C 854.792969 966.84375 854.03125 965.148438 854.03125 963.097656 C 854.03125 957.90625 859.5 955.449219 864.765625 955.449219 C 867.648438 955.449219 871.34375 956.082031 874.433594 957.246094 Z M 874.433594 962.566406 " fill-opacity="1" fill-rule="nonzero"/><path fill="#4a78ff" d="M 822.542969 905.746094 L 805.078125 905.746094 C 805.003906 941.421875 805.332031 947.222656 804.722656 954.4375 C 803.863281 964.289062 799.738281 966.921875 793.183594 966.921875 C 790.121094 966.921875 787.4375 966.515625 785.132812 965.65625 C 782.828125 964.792969 781.335938 964.085938 780.628906 963.527344 L 776.804688 977.785156 C 781.335938 980.894531 786.804688 982.46875 793.183594 982.46875 C 809.609375 982.46875 819.53125 976.316406 821.632812 959.855469 C 823.074219 948.4375 822.316406 940.257812 822.542969 905.746094 Z M 822.542969 905.746094 " fill-opacity="1" fill-rule="nonzero"/><g clip-path="url(#3f6f87801b)"><path fill="#3256c1" d="M 535.757812 308.585938 C 546.238281 308.585938 554.742188 317.09375 554.742188 327.574219 C 554.742188 338.058594 546.238281 346.566406 535.757812 346.566406 C 525.253906 346.566406 516.777344 338.058594 516.777344 327.574219 C 516.777344 317.09375 525.253906 308.585938 535.757812 308.585938 Z M 535.757812 308.585938 " fill-opacity="1" fill-rule="nonzero"/></g><path fill="#f88f19" d="M 1415.351562 764.355469 L 1288.789062 764.355469 C 1281.796875 764.355469 1276.132812 758.6875 1276.132812 751.695312 C 1276.132812 744.703125 1281.796875 739.035156 1288.789062 739.035156 L 1415.351562 739.035156 C 1422.339844 739.035156 1428.003906 744.703125 1428.003906 751.695312 C 1428.003906 758.6875 1422.339844 764.355469 1415.351562 764.355469 Z M 1415.351562 764.355469 " fill-opacity="1" fill-rule="nonzero"/><path fill="#f88f19" d="M 1415.351562 713.714844 L 1288.789062 713.714844 C 1281.796875 713.714844 1276.132812 708.046875 1276.132812 701.054688 C 1276.132812 694.0625 1281.796875 688.394531 1288.789062 688.394531 L 1415.351562 688.394531 C 1422.339844 688.394531 1428.003906 694.0625 1428.003906 701.054688 C 1428.003906 708.046875 1422.339844 713.714844 1415.351562 713.714844 Z M 1415.351562 713.714844 " fill-opacity="1" fill-rule="nonzero"/><path fill="#f88f19" d="M 858.488281 764.355469 L 731.925781 764.355469 C 724.9375 764.355469 719.269531 758.6875 719.269531 751.695312 C 719.269531 744.703125 724.9375 739.035156 731.925781 739.035156 L 858.488281 739.035156 C 865.476562 739.035156 871.144531 744.703125 871.144531 751.695312 C 871.144531 758.6875 865.476562 764.355469 858.488281 764.355469 Z M 858.488281 764.355469 " fill-opacity="1" fill-rule="nonzero"/><path fill="#f88f19" d="M 858.488281 713.714844 L 731.925781 713.714844 C 724.9375 713.714844 719.269531 708.046875 719.269531 701.054688 C 719.269531 694.0625 724.9375 688.394531 731.925781 688.394531 L 858.488281 688.394531 C 865.476562 688.394531 871.144531 694.0625 871.144531 701.054688 C 871.144531 708.046875 865.476562 713.714844 858.488281 713.714844 Z M 858.488281 713.714844 " fill-opacity="1" fill-rule="nonzero"/><path fill="#5cbeff" d="M 1352.070312 1055.542969 L 795.207031 1055.542969 C 788.21875 1055.542969 782.550781 1049.875 782.550781 1042.882812 C 782.550781 1035.890625 788.21875 1030.222656 795.207031 1030.222656 L 1352.070312 1030.222656 C 1359.0625 1030.222656 1364.726562 1035.890625 1364.726562 1042.882812 C 1364.726562 1049.875 1359.0625 1055.542969 1352.070312 1055.542969 Z M 1352.070312 1055.542969 " fill-opacity="1" fill-rule="nonzero"/><path fill="#5cbeff" d="M 1352.070312 1106.183594 L 795.207031 1106.183594 C 788.21875 1106.183594 782.550781 1100.519531 782.550781 1093.523438 C 782.550781 1086.53125 788.21875 1080.863281 795.207031 1080.863281 L 1352.070312 1080.863281 C 1359.0625 1080.863281 1364.726562 1086.53125 1364.726562 1093.523438 C 1364.726562 1100.519531 1359.0625 1106.183594 1352.070312 1106.183594 Z M 1352.070312 1106.183594 " fill-opacity="1" fill-rule="nonzero"/><path fill="#5cbeff" d="M 1352.070312 1156.824219 L 795.207031 1156.824219 C 788.21875 1156.824219 782.550781 1151.160156 782.550781 1144.164062 C 782.550781 1137.171875 788.21875 1131.503906 795.207031 1131.503906 L 1352.070312 1131.503906 C 1359.0625 1131.503906 1364.726562 1137.171875 1364.726562 1144.164062 C 1364.726562 1151.160156 1359.0625 1156.824219 1352.070312 1156.824219 Z M 1352.070312 1156.824219 " fill-opacity="1" fill-rule="nonzero"/><path fill="#3f4751" d="M 1498.878906 336.4375 L 648.398438 336.4375 C 610.632812 336.4375 580.054688 367.050781 580.054688 404.800781 L 580.054688 488.359375 L 1567.222656 488.359375 L 1567.222656 404.800781 C 1567.222656 367.050781 1536.621094 336.4375 1498.878906 336.4375 Z M 1498.878906 336.4375 " fill-opacity="1" fill-rule="nonzero"/><path fill="#545b66" d="M 985.046875 412.398438 L 1567.222656 412.398438 L 1567.222656 488.359375 L 985.046875 488.359375 Z M 985.046875 412.398438 " fill-opacity="1" fill-rule="nonzero"/><path fill="#757d8c" d="M 1567.222656 404.800781 L 1567.222656 412.398438 L 985.046875 412.398438 L 985.046875 336.4375 L 1498.878906 336.4375 C 1536.621094 336.4375 1567.222656 367.050781 1567.222656 404.800781 Z M 1567.222656 404.800781 " fill-opacity="1" fill-rule="nonzero"/><path fill="#3f4751" d="M 648.398438 336.4375 C 610.632812 336.4375 580.054688 367.050781 580.054688 404.800781 L 580.054688 488.359375 L 985.046875 488.359375 L 985.046875 336.4375 Z M 648.398438 336.4375 " fill-opacity="1" fill-rule="nonzero"/><path fill="#fb2b3a" d="M 833.175781 387.078125 C 847.148438 387.078125 858.488281 398.421875 858.488281 412.398438 C 858.488281 426.375 847.148438 437.71875 833.175781 437.71875 C 819.175781 437.71875 807.863281 426.375 807.863281 412.398438 C 807.863281 398.421875 819.175781 387.078125 833.175781 387.078125 Z M 833.175781 387.078125 " fill-opacity="1" fill-rule="nonzero"/><path fill="#07cc66" d="M 757.238281 387.078125 C 771.210938 387.078125 782.550781 398.421875 782.550781 412.398438 C 782.550781 426.375 771.210938 437.71875 757.238281 437.71875 C 743.242188 437.71875 731.925781 426.375 731.925781 412.398438 C 731.925781 398.421875 743.242188 387.078125 757.238281 387.078125 Z M 757.238281 387.078125 " fill-opacity="1" fill-rule="nonzero"/><path fill="#ffd400" d="M 681.304688 387.078125 C 695.277344 387.078125 706.613281 398.421875 706.613281 412.398438 C 706.613281 426.375 695.277344 437.71875 681.304688 437.71875 C 667.304688 437.71875 655.992188 426.375 655.992188 412.398438 C 655.992188 398.421875 667.304688 387.078125 681.304688 387.078125 Z M 681.304688 387.078125 " fill-opacity="1" fill-rule="nonzero"/></svg>