<svg xmlns="http://www.w3.org/2000/svg" xmlns:xlink="http://www.w3.org/1999/xlink" width="450" zoomAndPan="magnify" viewBox="0 0 337.5 337.500003" height="450" preserveAspectRatio="xMidYMid meet" version="1.0"><defs><clipPath id="2de4f95175"><path d="M 1.5 1.5 L 335.25 1.5 L 335.25 335.25 L 1.5 335.25 Z M 1.5 1.5 " clip-rule="nonzero"/></clipPath><clipPath id="e9c6d86a0b"><path d="M 68 93 L 335.25 93 L 335.25 335.25 L 68 335.25 Z M 68 93 " clip-rule="nonzero"/></clipPath></defs><g clip-path="url(#2de4f95175)"><path fill="#a1cff0" d="M 335.25 168.375 C 335.25 260.539062 260.539062 335.25 168.375 335.25 C 76.210938 335.25 1.5 260.539062 1.5 168.375 C 1.5 76.210938 76.210938 1.5 168.375 1.5 C 260.539062 1.5 335.25 76.210938 335.25 168.375 " fill-opacity="1" fill-rule="nonzero"/></g><g clip-path="url(#e9c6d86a0b)"><path fill="#64baea" d="M 335.25 168.375 C 335.25 167.851562 335.246094 167.328125 335.242188 166.804688 L 266.007812 97.574219 C 263.957031 95.046875 260.828125 93.425781 257.324219 93.425781 L 79.425781 93.425781 C 73.265625 93.425781 68.25 98.4375 68.25 104.597656 L 68.25 232.152344 C 68.25 235.652344 69.871094 238.777344 72.394531 240.828125 L 166.808594 335.242188 C 167.328125 335.246094 167.851562 335.25 168.375 335.25 C 260.539062 335.25 335.25 260.539062 335.25 168.375 " fill-opacity="1" fill-rule="nonzero"/></g><path fill="#eff4f3" d="M 90.367188 212.546875 L 246.386719 212.546875 L 246.386719 124.203125 L 90.367188 124.203125 L 90.367188 212.546875 " fill-opacity="1" fill-rule="nonzero"/><path fill="#2a384c" d="M 246.386719 212.546875 L 90.367188 212.546875 L 90.367188 124.203125 L 246.386719 124.203125 Z M 242.070312 232.734375 C 242.070312 234.460938 240.671875 235.855469 238.949219 235.855469 L 226.9375 235.855469 C 225.214844 235.855469 223.820312 234.460938 223.820312 232.734375 L 223.820312 221.011719 C 223.820312 219.289062 225.214844 217.890625 226.9375 217.890625 L 238.949219 217.890625 C 240.671875 217.890625 242.070312 219.289062 242.070312 221.011719 Z M 209.789062 232.734375 C 209.789062 234.460938 208.386719 235.855469 206.667969 235.855469 L 194.652344 235.855469 C 192.933594 235.855469 191.53125 234.460938 191.53125 232.734375 L 191.53125 221.011719 C 191.53125 219.289062 192.933594 217.890625 194.652344 217.890625 L 206.667969 217.890625 C 208.386719 217.890625 209.789062 219.289062 209.789062 221.011719 Z M 177.5 232.734375 C 177.5 234.460938 176.101562 235.855469 174.378906 235.855469 L 162.371094 235.855469 C 160.648438 235.855469 159.25 234.460938 159.25 232.734375 L 159.25 221.011719 C 159.25 219.289062 160.648438 217.890625 162.371094 217.890625 L 174.378906 217.890625 C 176.101562 217.890625 177.5 219.289062 177.5 221.011719 Z M 145.21875 232.734375 C 145.21875 234.460938 143.816406 235.855469 142.09375 235.855469 L 130.085938 235.855469 C 128.359375 235.855469 126.964844 234.460938 126.964844 232.734375 L 126.964844 221.011719 C 126.964844 219.289062 128.359375 217.890625 130.085938 217.890625 L 142.09375 217.890625 C 143.816406 217.890625 145.21875 219.289062 145.21875 221.011719 Z M 112.9375 232.734375 C 112.9375 234.460938 111.535156 235.855469 109.816406 235.855469 L 97.800781 235.855469 C 96.082031 235.855469 94.679688 234.460938 94.679688 232.734375 L 94.679688 221.011719 C 94.679688 219.289062 96.082031 217.890625 97.800781 217.890625 L 109.816406 217.890625 C 111.535156 217.890625 112.9375 219.289062 112.9375 221.011719 Z M 94.679688 102.339844 C 94.679688 100.613281 96.082031 99.21875 97.800781 99.21875 L 109.816406 99.21875 C 111.535156 99.21875 112.9375 100.613281 112.9375 102.339844 L 112.9375 114.0625 C 112.9375 115.785156 111.535156 117.183594 109.816406 117.183594 L 97.800781 117.183594 C 96.082031 117.183594 94.679688 115.785156 94.679688 114.0625 Z M 126.964844 102.339844 C 126.964844 100.613281 128.359375 99.21875 130.085938 99.21875 L 142.09375 99.21875 C 143.816406 99.21875 145.21875 100.613281 145.21875 102.339844 L 145.21875 114.0625 C 145.21875 115.785156 143.816406 117.183594 142.09375 117.183594 L 130.085938 117.183594 C 128.359375 117.183594 126.964844 115.785156 126.964844 114.0625 Z M 159.25 102.339844 C 159.25 100.613281 160.648438 99.21875 162.371094 99.21875 L 174.378906 99.21875 C 176.101562 99.21875 177.5 100.613281 177.5 102.339844 L 177.5 114.0625 C 177.5 115.785156 176.101562 117.183594 174.378906 117.183594 L 162.371094 117.183594 C 160.648438 117.183594 159.25 115.785156 159.25 114.0625 Z M 191.53125 102.339844 C 191.53125 100.613281 192.933594 99.21875 194.652344 99.21875 L 206.667969 99.21875 C 208.386719 99.21875 209.789062 100.613281 209.789062 102.339844 L 209.789062 114.0625 C 209.789062 115.785156 208.386719 117.183594 206.667969 117.183594 L 194.652344 117.183594 C 192.933594 117.183594 191.53125 115.785156 191.53125 114.0625 Z M 223.820312 102.339844 C 223.820312 100.613281 225.214844 99.21875 226.9375 99.21875 L 238.949219 99.21875 C 240.671875 99.21875 242.070312 100.613281 242.070312 102.339844 L 242.070312 114.0625 C 242.070312 115.785156 240.671875 117.183594 238.949219 117.183594 L 226.9375 117.183594 C 225.214844 117.183594 223.820312 115.785156 223.820312 114.0625 Z M 257.324219 93.425781 L 79.425781 93.425781 C 73.265625 93.425781 68.25 98.4375 68.25 104.597656 L 68.25 232.152344 C 68.25 238.3125 73.265625 243.324219 79.425781 243.324219 L 257.324219 243.324219 C 263.488281 243.324219 268.5 238.3125 268.5 232.152344 L 268.5 104.597656 C 268.5 98.4375 263.488281 93.425781 257.324219 93.425781 " fill-opacity="1" fill-rule="nonzero"/><path fill="#e75a59" d="M 158.105469 184.09375 L 185.335938 168.378906 L 158.105469 152.652344 Z M 158.105469 184.09375 " fill-opacity="1" fill-rule="nonzero"/><path fill="#e75a59" d="M 168.378906 142.148438 C 153.914062 142.148438 142.148438 153.914062 142.148438 168.378906 C 142.148438 182.835938 153.914062 194.601562 168.378906 194.601562 C 182.835938 194.601562 194.601562 182.835938 194.601562 168.378906 C 194.601562 153.914062 182.835938 142.148438 168.378906 142.148438 Z M 168.378906 201.859375 C 149.910156 201.859375 134.890625 186.84375 134.890625 168.378906 C 134.890625 149.90625 149.910156 134.890625 168.378906 134.890625 C 186.84375 134.890625 201.867188 149.90625 201.867188 168.378906 C 201.867188 186.84375 186.84375 201.859375 168.378906 201.859375 " fill-opacity="1" fill-rule="nonzero"/></svg>